<?xml version="1.0" encoding="UTF-8"?>
<svg id="Layer_1" data-name="Layer 1" xmlns="http://www.w3.org/2000/svg" viewBox="0 0 1791.35 2383.32">
  <path d="M1381.14,2228.98l-250.6,60.2-125.03,41.24c-25.32,8.35-44.1,24.09-66.24,39.66-23.01,16.19-61.04,18.52-85.04,1.39-30.81-22-59.93-40.02-96.2-53.06-75.84-27.27-151.01-49.41-230.48-66.98l-435.24-96.21C31.98,2141.9-.08,2083.43,0,2025.65l1.12-766.49c.05-32.54,35.88-53.15,64.37-49.86,21.05,2.43,37.21,9.05,58.98,17.1l.93-114.51c.33-40.8,79.51-49.31,126.17-47.8,232.26,7.53,485.26,95.68,643.5,269.75,162-175.81,415.27-262.7,649.03-270.07,45.2,0,119.61,9.02,119.81,48.38l.61,114.84c20.48-7.47,40.75-15.87,61.29-17.82,37.88-3.6,65.61,23.32,65.55,60.86l-1.32,775.87c-.1,59.32-50.95,103.46-104.21,115.31l-304.68,67.78ZM724.26,2146.66c56.8,35.85,103.45,77.57,143.84,132.24l-.03-894.42c-151.61-174.6-397.27-258.75-622.35-265.87-24.08.36-45.1,1.9-67.14,8.05l-.06,869.74c102.17,7.49,201.8,22.98,300.63,49.22,86.81,22.78,167.27,54.19,245.11,101.05ZM1073.41,2142.86c160.52-93.72,355.52-131.47,537.37-146.02l-.04-871c-26.75-5.48-51.49-7.84-78.03-6.72-192.84,8.15-392.93,73.93-542.27,197.51l-68.58,67.65.2,894.4c43.98-57.57,91.73-100.51,151.35-135.82ZM476.62,2101.15c-107.54-29.82-215.81-45.03-327.32-52.76-12.92-.9-24.5-15.21-24.5-28.83v-733.59c-23.13-10.83-45.19-20.47-70.58-24.26l.09,772.4c0,33.25,21.99,62.78,54.46,69.75l333.75,71.59,214.85,53.76,135.46,43.74c-80.02-88.8-201.44-139.97-316.21-171.8ZM995.01,2275.33l128.75-40.19,268.32-64.32,291.24-65.15c30.18-6.75,53.91-36.44,53.91-68.62l.08-775.21c-28.7,4.36-50.4,14.04-72.99,25.22v732.19c0,20.2-14.5,29.1-32.26,30.23-161.31,10.29-354.63,46.32-497.51,121.08-52.26,27.34-98.63,59.74-139.55,104.79Z"/>
  <path d="M1095.35,1098.87c-183.64,84.33-397.02,41.39-533.59-105.85-56.1-60.48-95.91-133.6-113.09-216.43-63.09-32.33-94.14-92.76-106.1-162.67-18.75-109.62,7.49-222.42,71.51-314.6-20.44-18.66-36.01-40.79-45.77-67.22-4.85-18.43,6.41-35.28,25.15-38.14,40.9-13.94,81.94-22.25,125.87-20.1C584.87,73.61,701.18,21.8,818.32,5.49c107.19-14.92,215.16.28,311.57,48.93,49.95,25.21,92.2,58.21,126.22,101.95,35.77,14.51,72.8,14.53,110.66,5.73,7.7-1.79,19.03,1.56,24.61,6.42,22.08,19.21-3.04,78.29-30.39,104.49,49.83,47.39,80.31,107.19,96.41,173.18,25.68,113.75,5.71,253.43-100.38,315.12-26.11,149.06-123.19,273.96-261.67,337.55ZM920.55,520.61l-23.16-79.58c-1.48-11.33,1.21-23.26,9.73-29.8,7.42-5.69,22.36-8.81,31.49-1.46,113.64,91.5,253.19,141.87,399.33,142.89,9.94.07,18.93,11.43,20.5,18.46,1.84,8.28-1.55,20.13-4.42,27.15l8.74,91.42c75.09-92.98,60.63-237.49-2.78-333.32-12.49-18.87-28.15-37.65-46.31-49.1-11.33-7.15-23.52-10.96-25.43-24.32-4.6-32.22,29.52-30.59,43.82-60.88-38.11-.4-80.03-2.26-111.04-24.98-106.04-129.76-287.31-165.38-446.61-127.12-82.66,19.85-173.56,66.74-214.1,141.72-7.98,14.76-20.19,19.87-36.77,17.69-30.96-4.08-60.92.95-91.95,9.65,19.27,27.29,47.46,30.51,49.94,51.6,1.13,9.57-4.45,16.98-10.91,25.15-66.28,83.85-93.01,193.45-72.92,298.63,6.5,34.03,19.55,64.43,41.82,90.34l5.87-83.66c1.14-16.32,8.56-29.6,24.83-35.13,78.45-42.56,139.87-110.11,174.12-192.84,4.52-10.92,13.23-18.51,23.54-19.79,11.21-1.4,20.64,4.17,28.11,13.47,56.43,70.36,136.03,120.43,224.58,133.81ZM976.33,503.91c2.95,14.77,7.69,22.21,14.51,32.2,4.42,7.99,5.84,19.12,1.73,27.66-3.2,6.64-11.43,12.32-19.78,15.95-114.79.75-215.38-47.9-294.41-129.91-42.99,79.35-103.39,140.57-179.18,182.88-12.3,75.14-1.18,149.6,30.82,217.77,67.78,144.4,213.32,235.59,370.71,235.6,158.05,0,303.7-89.91,371.66-234.78,35.94-76.61,45.4-161.32,26.64-245.17-115.87-6.32-224.79-42.54-322.7-102.2Z"/>
  <path d="M1197.66,1782.31l-108.83,50.57c-14.96,6.95-31.19-1.38-35.4-15.07-5.04-16.37,2.98-26.82,18.11-35.15,121.56-66.89,255.64-102.85,394.24-112.59,16.22-1.14,29.23,3.92,32.86,19.04,3.08,12.83-3.04,30.73-19.22,32.08-96.55,8.01-190.14,25.55-281.77,61.1Z"/>
  <path d="M1471.47,1506.51c-140.13,9.9-258.09,39.43-381.94,104.92-12.49,6.6-26.97,2.2-34.08-9.22-4.87-7.82-6.02-27.32,5.65-34.08,123.41-71.56,270.53-106.37,413.13-114.62,16.46-.95,25.97,14.58,25.34,27.42-.78,15.9-11.62,24.41-28.09,25.58Z"/>
  <path d="M701.86,1611.41c-52.16-26.26-102.03-49.46-157.25-65.72-76.31-22.47-152.44-35.7-231.65-40.14-15.17-.85-23.68-14.79-23.6-27.39.08-12.59,10.76-26.13,25.97-25.25,144.69,8.42,280.06,40.18,406.82,110.27,13.03,7.2,18.97,19.17,14.44,32.99-3.79,11.54-19.62,22.85-34.73,15.25Z"/>
  <path d="M702.57,1832.49c-124.01-67.4-247.68-100.79-387.13-110.93-15.99-1.16-26.3-12.46-25.97-27.28.32-14.43,12.29-26.61,28.9-25.42,145.19,10.37,279.74,45.04,406.56,116.52,12.27,6.92,15.45,21.31,11.07,32.36-4.01,10.11-19.58,22.28-33.43,14.75Z"/>
</svg>