<?xml version="1.0" encoding="UTF-8"?>
<svg id="Communication" xmlns="http://www.w3.org/2000/svg" viewBox="0 0 2314.34 2404.7">
  <path d="M1911.26,2127.69c-62.4,34.84-156,62.31-229.2,69.01-40.6,3.72-79.53,9.4-120.53,4.82l-102.15-11.42c-132.06-26.66-250.31-91.62-349.11-182.17-27.42-25.13-47.59-52.54-72.2-80.87-5.91-6.81-19.54-2.21-28.21-.83-62.47,9.88-124.5,16.73-187.65,11.24-57.68-5.01-113.62-11.76-168.77-27.29l-44.48-12.52c-53.53-15.07-101.63-39.98-152.48-63.68l-78.41,26.96-136.07,41.56-64.22,18.34-56.92,15.56c-35.26,9.64-68.98-20.78-68.7-58.51.1-13.52,4.45-29.95,7.99-43.82l27.76-108.7,32.37-122.27,12.65-47.54c5.43-20.4,3.75-29.17-7.03-46.53C21.25,1340.43-23.33,1124.19,11.87,927.71c19.06-106.38,54.66-205.79,110.62-297.61,42.37-69.54,90.3-130.96,149.03-186.78l61.08-53.34c93.33-81.51,271.94-157.25,396.53-175.99,70.97-10.67,139.36-14.43,210.16-9.13,69.16,5.18,134.74,13.69,199.53,38.75l93.71,36.24c47.72,18.45,93.2,40.54,133.15,72.61l73.8,59.25c81.7,65.59,142.76,144.9,195.96,234.9,16.52,27.95,30.27,55.03,40.69,86.05,3.87,11.54,11.32,25.62,19.2,33.24l68.68,11c111.07,17.79,229.47,86.84,313.72,161.78,96.14,85.52,167.66,190.67,206.35,313.74,17.18,54.65,30.61,106.9,30.28,164.36l-.6,107.55-10.74,84.95-17.11,68.8c-15.36,61.76-42.92,118.8-78.65,171.69-7.01,10.37-7.54,19.04-4.28,31l17.11,62.68,44.48,163.5c6.82,25.08,10.27,44.94-6.25,66.44-18.13,23.6-43.4,30.69-72.51,22.89l-47.63-12.76-140.86-45.78-34.17-12.95c-20.32-7.7-34.17-6.96-51.86,2.92ZM719.41,1854.64c50.68,11.18,98.54,11.36,148.83,11.59,51.23.23,100.58-1.02,150.46-10.87,157.03-31.03,327.3-119.02,433.16-237.93l44.96-50.5c67.36-83.36,142.57-221.29,160.58-323.67l11.82-67.18,7.3-82.4.39-54.05-7.29-82.17-12.34-60.93c-32.38-159.91-134.64-330.25-261.97-431.21l-51.29-40.67c-48.37-38.35-101.26-64.82-157.86-89.32-59.39-25.71-118.22-41.34-182.24-52.03-84.15-14.05-166.39-16.62-250.43-1.06-29.98,5.55-58.62,7.87-88.63,16.95-94.89,28.74-185.66,69.99-266.79,127.94-80.12,57.23-147.45,134.06-202.27,215.98-35.14,52.52-61.45,109.91-82.98,169.23l-13.81,47.5c-17.46,60.09-30.59,119.9-29.95,182.36l.37,36.01c1.65,161.31,52.95,300.12,138.9,435.39,4.96,14.62-3.93,31.75-7.61,46.25l-40.95,161.37-18.26,63.77-16.42,60.02c-.94,3.43-.47,11.07,1.41,13.55s9.44,4.28,12.57,3.4l94.35-26.52,196.8-64.86c24.7-8.14,39.86-7.43,63.19,4.55,71.54,36.72,145.62,61.76,225.99,79.5ZM1519.34,2131.17c88.3,12,172.01,3.95,254.97-20.49,47.37-10.41,89.31-29.52,131.2-52.86,14.33-7.99,29.94-11.01,46.32-5.45l162.82,55.3,63.88,19.01c4.65,1.38,13.09,2.79,16.72,1.07s2.94-12.64,1.87-16.52l-12.41-45.02-27.82-108.09-14.45-58.78c-4.09-16.63-12.25-35.24-9.06-52.72,67.14-109.96,104.44-195.06,116.35-325.26,2.65-28.95,6.29-56.36,2.36-85.78l-12.07-90.16-27.56-95.42c-46.73-124.55-128.41-230.72-236.85-306.83-86.45-60.67-135.87-79.91-237.24-105.68-6.53-1.66-17.79-2.07-20.44,2.35-6.48,11.78,6.67,23.97,7.85,33.18l18.59,145.02.18,100.23-7.17,42.65-10.83,75.35-27.34,105.41c-15.4,59.39-44.5,109.84-74.69,162.55-57.17,99.79-131.33,183.3-223.01,252.92-38.37,29.14-74.87,57.42-119.03,77.45l-108.77,49.33-61.14,19.06c-5.95,1.85-2.75,13.81,1.64,17.84l49.87,45.78c64.5,59.21,157.69,116.89,240.69,138.5l47.68,12.41,66.92,13.63Z"/>
  <path d="M583.58,1087.19c-9.11,38.16-43.48,62.21-80.9,57.75-36.34-4.32-64.77-34.71-66.21-73.13-1.64-43.6,28.06-75.6,72.04-79.12,22.89-1.83,45.31,9.77,59.7,26.41,15.59,18.03,21.03,44.39,15.37,68.09Z"/>
  <path d="M930.38,1115.4c-17.22,23.68-41.52,32.75-68.52,28.65-23.45-3.56-41.63-20.89-51.07-37.29-13.6-23.64-12.75-49.7-1.95-71.96,11.56-23.84,32.34-40.11,55.44-42.85,26.56-3.15,52.24,6.15,67.8,28.67,19.17,27.75,18.44,67.1-1.69,94.79Z"/>
  <path d="M1298.7,1104.85c-10.75,18.79-29.54,34.96-51.31,38.49-41.48,6.72-80.59-27.85-83.85-67.36-3.53-42.76,27.39-82.74,71.89-84.12,26.74-.83,51.11,16.71,62.53,35.69,14.62,24.29,15.41,51.67.74,77.31Z"/>
</svg>