<?xml version="1.0" encoding="UTF-8"?>
<svg id="Layer_1" data-name="Layer 1" xmlns="http://www.w3.org/2000/svg" viewBox="0 0 2314.34 2298.58">
  <path d="M2313.31,1778.89l.87,263.48c.26,77.8-27.96,147.15-89.06,196.88-26.82,21.83-56.91,41.28-92.04,49.33l-43.67,10.01-1865.47-.08c-84.73-18.35-157.88-62.32-196.34-139.01C13.66,2131.7,0,2098.42,0,2065.33L.31,240.99c0-36.33,13.87-75.29,29.36-105.65C68.43,59.42,145.1,15.07,228.74.6l1612.28.68c33.62.01,63.97,4.33,97.1,1.66,47.12-3.8,94.51-3.71,142.37-.97,66.74,3.81,126.58,36.48,170.91,84.79,45.09,49.13,62.04,113.36,61.88,179.16l-.21,83,1.15,929.31.13,119.38-1.03,381.28ZM2243.55,1304.91l.57-497.05.08-46.98.25-504.06c.05-96.67-76.83-182.09-167.79-182.53l-77.95-.38-30.55-.03-357,.63-100.9.72-57.98-1.49-340.45-.24-24.57.02-862,.78c-41.15.04-81.3,29.81-105.84,56.79-27.7,30.45-42.24,63.46-50.31,102.93l.7,1821.24c.01,29.4,12.84,58.25,27.02,82.09,28.77,48.36,80.69,81.71,136.9,87.86,29.69,3.24,58.4.38,87.5-.65,53.39-1.89,105.2-3.33,159.75,1.33l1601.48.21c72.12-9.97,129-55.46,152.06-122.14,6.34-18.33,9.88-34.59,9.87-54.72l-.29-334.11.1-65.49-.86-63.19.22-281.53Z"/>
  <path d="M893.54,1805.08c.42,21.96-20.88,35.92-39.65,37.16-11.09-2.85-23.78-13.99-32.38-22.75l-135.16-137.54c-4.78-4.87-9.33-11.63-16.08-12.54l-50.22,52.47-111.56,112.07c-5.24,5.27-19.06,10.1-25.48,9.81s-16.4-7.15-22.44-13.15c-8.94-8.89-15.6-26.13-5.59-37.1,52.61-57.62,105.93-111.65,162.26-166.31,4.21-4.09,1.88-15.15-1.54-18.57l-25.16-25.15-131.87-131.06c-5.32-5.29-10.93-17.27-10.07-23.37,1.11-7.92,8.56-16.97,14.56-23.43,11.12-11.98,25.53-17.65,38.6-5.68l32.54,29.82,75.5,75.52,51.18,51.36c3.22,3.23,12.02,7.15,17.19,7.47l53.71-55.87,111.69-111.68c12.25-12.25,31.98-.11,40.52,9.68,12.05,13.82,13.39,30.01-.32,44.06l-159.16,163.13c-5.14,6.65,6.58,17.96,11.08,22.51l143.86,145.57c4.31,4.36,13.89,16.79,14.02,23.54Z"/>
  <path d="M638.71,976.19c2.55-72.2,3.31-137.7,1.96-207.49-.15-7.51.75-26.95-10.96-26.91l-197.76.73c-14.15.05-25.53,3.48-36.63-5.48-8.46-6.83-17.65-18.44-16.21-31.16,1.95-17.22,16.64-29.15,32.73-31.46l214.74,1.51c5-1.47,10.24-5.54,13.17-10.2l-.76-238.19c8.69-10.21,20.62-19.2,34.19-20.19,11.8-.85,36.05,12.01,36.03,25.48l-.25,230c0,6.14,7.12,12.87,13.07,12.85l217.93-.45c16.73-.03,28.14,14.69,30.36,28.8,1.79,11.37-8.98,36.29-25.87,36.39l-234.69,1.37-.41,235.24c-8.4,12.46-22.62,19.43-37.34,23.98-12.56-3.52-26.91-11.71-33.28-24.82Z"/>
  <path d="M1901.15,1645.26l-521.47.52c-18.22.02-32.86-22.29-30.75-38.63,1.89-14.64,17.03-32.9,33.44-32.89l516.06.39c16.77.01,30.74,24.83,29.48,37.72-1.5,15.38-11.73,25.77-26.77,32.89Z"/>
  <path d="M1905.2,741.37l-531.45.11c-16.54-4.48-27.86-25.34-25.26-36.74,4.29-18.78,17.08-29.49,36.6-29.5l345.95-.15,162.03-.04c18.81,0,32.08,7.57,37.63,28,3.26,12-6.2,30.69-25.49,38.32Z"/>
  <path d="M1696.07,1810.26c12.95,40.38-22.8,82.5-63.62,78.35-37.22-3.79-60.73-42.67-51.49-78.4,6.02-23.28,32.38-45.28,58.17-44.97,23.85.29,49.34,21.29,56.94,45.01Z"/>
  <path d="M1697.27,1395.39c-.38,33.19-29.76,61.46-61.59,60.47-31.13-.96-57.22-31.83-56-61.28,1.36-32.74,26-62.58,59.6-61.14,29.98,1.28,58.34,30.22,57.98,61.96Z"/>
</svg>