<?xml version="1.0" encoding="UTF-8"?>
<svg id="General" xmlns="http://www.w3.org/2000/svg" viewBox="0 0 2314.34 2404.7">
  <path d="M2145.03,2175.32c-22.53,9.12-42.27,7.87-66.14,7.88l-1202.24.44-662.93-.23c-30.26-.01-54.27-13.34-78.61-27.29-58.08-33.29-95.37-92.81-96.93-159.48,2.17-28.56,2.55-54.36-.62-83.28l-.26-581.18c6.02-18.44-.2-31.57-11.29-45.35-13.95-17.36-25.4-39.65-25.44-63.59L0,838.24c-.06-38.17,5.39-69.94,24.15-103.27,29.47-52.38,79.8-94.99,142.58-100.07,42.51-3.44,82.93-2.06,125.64-2.24l361.77-1.6c10.81-.05,15.4-4.94,15.48-15.43l1.65-226.31c.55-74.84,82.03-163,161.81-165.92l59.19-2.17,570.04-.16c102.69-.03,187.97,92.11,187.77,194.99l-.15,75.97-.26,71.17-2.1,53.19c-.24,6.1,5.87,14.25,13.08,14.31l135.05,1.13,37.58.03,299.29.73c90.05.22,171.43,80.48,177.14,170.87l2.53,259.55,2.06,132.76c.46,29.9-4.84,57.78-22.77,82.45l-17.02,23.42-.23,708.37c0,27.65-11.63,55.5-24.36,77.9-23.19,40.8-61.25,69.75-104.9,87.43ZM743.52,631.15l834.88-.07c13.77-9.62,9.51-22.37,9.43-35.3l-.49-82.71-2.25-110.41c-.75-36.67-24.94-71.59-54.78-91.55-36.02-24.1-77.68-29.16-120.34-22.41l-570.02-.09c-30.82,8.2-57.21,22.4-76.52,47.79-13.55,17.82-28.87,41.99-29.1,64.91l-.8,78.76-.21,132.88c0,5.9-3.06,18.22,10.2,18.22ZM1354.46,1153.59l-.68,81.26c-.08,9.83-4.52,23.86,5.18,31.68l834.43.08c13.7,0,24.21-6.82,32.54-12.9,22.09-16.09,24.31-34.01,24.34-58.48l.41-353.29c.04-34.17-5.49-61.77-27.89-89.25-22.81-28-54.07-53.09-94.19-53.09H192.46c-63.82,4.73-114.02,48.21-127.05,110.49l.38,231.27.99,179.16c.09,16.49,24.54,43.71,41.43,44.61,57.44,3.09,109.45,1.21,167.13,1.22l684.51.12,2.81-117.76c.75-31.29,28.82-65.34,62.91-65.56l252.27-1.66c39.23-.26,76.96,30.98,76.62,72.09ZM1292.29,1492.33l.04-299.25-2.35-27.72c-1.21-14.25-9.41-19.03-21.57-19.06l-172.91-.37c-20.21-.04-42.63-5.56-61.48.49-13.25,4.25-10.34,21.83-10.39,32.45l-.92,204.91.7,115.87c.08,13.49,9.59,23.44,22.8,23.39l227.72-1.03c10.89-.05,18.35-18.65,18.35-29.68ZM2209.09,2008.58l-.18-660.98c0-4.49-2.13-11.25-4.77-12.71s-9.07-1.91-12.97-1.88l-44.06.31-309.21-.12-392.66.39-77.83-.66c-9.12-.08-14.46,8.11-14.17,17.17l1.19,37.05,1.02,120.61c-3.75,40.43-34.93,72.74-74.35,81.15l-240.91.11c-43.84.02-77.79-46.19-77.95-69.1l-1.22-171.87c-.03-4.3-2.95-12.16-6.11-14.15-3.16-1.99-10.94-1.01-17.38-1.01l-813.3.15c-7.86,0-18.95-2.43-20.83,5.49-2.51,10.6,1.18,22.71,1.17,33.25l-.15,126.06.05,32.05.04,390.75c0,37.12-6.15,71.61,5.01,107.92,14.49,47.12,60.56,84.18,110.07,87.7l75.75-.1,139.99.25,105.72-.14,148.55-.07,296.6.07h113.94s373.55-.02,373.55-.02h159.99s235.73-.04,235.73-.04l246.83-1.18c48.08-16.68,83.74-54.22,92.86-106.47Z"/>
</svg>