<?xml version="1.0" encoding="UTF-8"?>
<svg id="Base_Layer" data-name="Base Layer" xmlns="http://www.w3.org/2000/svg" viewBox="0 0 2314.34 2298.58">
  <path d="M1549.2,2017.96l-225.5.82-31.8,28.32c-25.47,22.68-56.99,40.62-90.32,40.53l-89.43-.24c-31.69-.09-59.43-9.7-83.22-34.11-5.36-5.49-14.58-13.65-17.9-19.56-9.69-17.26-21.16-15.56-36.5-15.54l-211.74.28-300.1.48-342.3.47c-40.74.06-78.79-11.86-103.24-50.47-8.24-13.01-16.9-30.69-16.87-48.01l.41-211.98-.1-357.21v-637.62S0,571.32,0,571.32c-.25-59.62,31.52-112.36,86.22-120.75,29.34-4.51,6.64-47.55,18.51-95.43,9.72-39.2,36.07-69.35,70.96-79.28,35.71-10.17,70.94-12.94,107.47-19.76,69.62-13,137.2-23.65,207.6-30.37l106.91-10.19c21.37-2.04,42.36-.82,63.7.24,40.36,2,78.86,5.73,118.92,12.46,112.99,18.97,208.61,50.63,302.1,125.3,25.1,20.05,45.97,42.23,68.04,66.86,5.52,6.16,13.82-.29,18.31-5.84,53.61-66.22,127.43-114.62,203.22-143.07,63.69-23.91,126.55-40.41,193.06-47.3l82.98-8.59h72.65s109.66,10.22,109.66,10.22c71.56,6.67,140.1,16.57,210.56,30.52l94.5,18.7c37.57,7.44,70.67,43.4,76.35,87.58l2.07,86.98c50.12,8.19,88.62,35.25,100.46,91.16l.08,1389.45c-12.49,47.55-50.3,87.23-96.22,87.43l-136.39.58-532.53-.26ZM563.46,1755.4c78.48-2.05,153.7-5.19,229.96,5.18l73.41,9.98c81.31,11.05,160.54,36.17,234.08,75.57,9.87,5.29,15.98,17.79,28.91,8.93l-.86-198.11-.02-157.9v-145.53s0-120.15,0-120.15l.38-282.12.02-42.47.42-411.28c-14.49-22.8-29.26-43.21-48.41-60.35-20.18-18.06-39.87-35.78-62.11-50.8-80.95-54.67-204.44-90.84-298.82-97.5-90.35-6.37-178.17-1.97-267.64,5.75-34.46,2.98-66.36,8.77-100.36,14.44l-148.06,24.69c-19.95,3.33-44.18,22.03-45.51,45.99-2.92,52.42-.05,102.62,0,155.03l.21,219.79-1.21,129.76,1.43,126.36-1.34,154.78,1.27,130.84c.51,52.46,1.47,103.23-.26,155.61-1.56,47.16-2.41,92.77-.86,140.26,1.51,46.11,2.41,89.79.08,135.99-1.45,28.9,9.69,57.59,36.49,65.43,10.11,2.96,24.61-1.24,35.51-2.73l116.18-15.8,116.46-12.82,100.64-6.82ZM1211.66,1847.86c42.25-26.52,86.8-43.12,132.98-55.13l59.74-15.53c113.64-19.31,216.77-29.06,332.26-23.08l51.28,2.66,189.31,19.47,101.57,12.84c13.2,1.67,25.75,8.22,40.53,3.98,13.08-3.76,35.91-23.61,35.92-43.4l.13-568.47.32-802.1c-6.65-27.69-26.87-43.83-50.91-47.77l-78.73-12.87-119.84-17.92c-105.36-15.76-209.75-16.92-315.68-12.1-38.97,1.77-74.47,10.66-112.09,19.63-68.33,16.3-149.02,51.72-207.41,94.05-26.43,19.16-48.05,42.99-69.04,67.89-14.26,16.91-16.73,28.04-16.62,51.08l1.05,206.42.78,235.73-1.87,47.49.38,183.21c.12,57.25,3.4,112.08.64,168.8-2.01,41.12,1,80.44.64,121.88l-1.37,158.09.3,145.06c.04,17.59,2.43,33.33-.75,51.24-1.45,8.15,2.44,17.7,9.6,18.69,4.4.61,11.07-6.19,16.89-9.85ZM2211.1,1440.67l.25,232.16-.74,80.96c-.44,48.54-31.42,89.49-73.52,102.24-17.56,5.32-35.52-.19-53.29-2.32l-97.67-11.69-96.56-11.15c-107.52-12.42-293.96-12.4-401.61-.21l-82.5,15.07-55.51,13.46c-64.85,15.73-123.86,46.08-178.43,87.97-9.58,7.35-20.44,6.11-29.56-.85-62.34-47.58-130.94-80.66-205.69-95.59-41.67-8.32-80.51-20.21-123.08-22.67-130.58-7.54-259.25-8.03-389.87,2.44l-101.98,12.44-106.37,13.93c-52.58,6.89-87.99-20.43-113.47-71.88l-.87-303.57.36-435.91-.37-338.06.85-177c.03-5.3-1.24-12.3-3.96-14.66-10.72-9.3-42.77,17.13-42.75,51.6l.66,976.99,1.22,356.96c.07,21.28,19.4,53.5,41.79,53.51l915.58.57c20.16.01,44.36,48.55,75.02,62.24,24.65,11.01,102.83,10.01,129.81.67,38.05-13.17,61.71-62.85,85.13-62.87l534.54-.5,373.16-.06c22.46,0,48.05-24.29,49.05-59.38l1.43-50.53-.38-184.65.17-221.01-.46-143.52-.59-651.23,2.66-60.6c2.41-55-40.76-78.4-49.71-66.86-2.55,3.29-1.53,10.99-1.54,17.99l-.25,806.83-.98,98.74Z"/>
  <path d="M848.61,752.28c-50.55-17.53-99.42-25.89-150.83-29.89l-39.83-3.1c-34.37-2.67-67.19-2.42-101.71.5l-124.37,10.52-68.09,12.37c-10.7,1.94-21.22.31-28.67-7.46-5.63-5.88-13.17-16.14-10.67-27.72,2.94-13.64,16.78-27.84,29.23-29.82l109.28-17.35c72.24-11.47,152.58-12.39,225.53-8.67,21.41,1.09,44.08,2.29,64.6,6.82l73.35,16.18c34.51,7.61,66.97,22.67,99.94,36.08,12.43,5.06,23.07,16.98,25.52,31.95,1.27,7.74-6.21,18.66-10.6,24.03-11.08,13.61-21.77,10.14-35.51,5.37l-57.18-19.83Z"/>
  <path d="M747.6,1059.79c-110.88-8.11-231.82-9.95-339.76,13.4l-47.56,10.29c-8.89,1.92-20.13-3-26.46-9.28-6.39-6.34-11.78-20.74-9-30,7.09-23.64,25.9-25.97,44.02-29.08l110.37-18.94c44-7.55,85.91-12.35,130.85-11.53,39.22.71,76.93.77,116.01,7.55l75.99,13.19c35.38,6.14,68.57,18.77,102.92,29.7,18.4,5.85,39.14,15.59,46.96,36.52,6.77,18.1-14.93,45.48-31.93,39.14-57.35-21.4-111.3-36.91-172.4-50.95Z"/>
  <path d="M907.7,1439.82c-138.78-48.87-235.4-62.2-381.64-47.96-36.82,3.58-72.17,8.04-108,14.99l-62.98,12.22c-13.39,2.6-27.78-9.77-30.63-21.76-3.52-14.82,2.15-30.33,15.51-37.65,10.65-5.83,23.43-7.65,35.75-10.42,38.51-8.64,75.83-15.4,115.24-19.45l73.05-7.51c66.04-6.78,130.41.38,195.93,8.93l54.12,10.38c38.99,7.48,75.46,20.43,112.81,35.73,10.46,4.28,22.58,17.13,25.32,28.65,3.04,12.79-6.65,23.53-13.6,30.27-7.97,7.73-19.66,7.54-30.88,3.59Z"/>
  <path d="M1794.63,722.78l-49.52-3.61c-30.49-2.22-59.86-2.38-90.33-.17l-53.9,3.9c-69.32,5.02-144.95,28.57-209.82,57.61-21.11-2.64-32.48-26.41-26.3-48.82,9.5-12.18,20.72-19.87,35.03-25.39,72.79-28.09,147.26-47.36,224.82-54.35,68.83-6.21,178.55-1.08,247.77,10.93l90.8,15.76c14.78,2.56,29.14,13.23,29.92,32.28.56,13.67-11.98,31.53-24.14,33.51-48.34-10.4-94.85-16.51-143.71-19.66l-30.63-1.98Z"/>
  <path d="M1906.6,1074.56l-88.26-14.43c-79.89-7.39-158.65-8.19-238.19,1.17l-80.7,16.32c-33.42,6.76-64.54,18.6-96.02,31.95-15.97,6.77-30.44-1.02-36.95-16.9-6.74-16.45.88-35.85,18.31-43.1,47.51-19.78,96.48-37.91,147.6-45.75l96.94-14.88c47.25-7.25,93.77-2.8,141.48-.39l75.33,10.07c36.09,4.82,70.54,8.67,106.22,16.66,15.8,3.54,31.47,6.24,39.09,25.46,6.58,16.57-5.27,43.57-24.01,43.95-20.04.41-40.66-6.81-60.83-10.11Z"/>
  <path d="M1654.82,1388.56l-68.52,6.9c-58.89,5.93-114.12,23.21-170.02,44.48l-22.94,6.58c-14.45,4.14-27.73-13.29-29.91-27.14-2.74-17.38,7.2-32.71,23.09-38.63l42.12-15.7,109.26-28.99c33.53-8.9,67.97-13.34,102.56-13.14l110.37.64,71.02,6.72c44.46,4.21,86.86,12.55,130.84,20.08,17.51,3,34.58,6.48,40.68,29.53,2.02,7.62-2.01,21.85-6.98,27.43-7.67,8.61-16.53,11.52-27.31,9.36-65.86-13.21-130.41-22.18-197.05-28.61l-107.22.49Z"/>
</svg>