<?xml version="1.0" encoding="UTF-8"?>
<svg id="General" xmlns="http://www.w3.org/2000/svg" viewBox="0 0 2314.34 2376.47">
  <path d="M1042.04,1193.13c-174.03,17.68-358.18,101.14-459.35,244.28-39.13,55.36-69.93,114.03-92.23,177.94l-26.04,94.5-12.61,72.65-8.83,61.86-10.84,138.93-1.09,169.03c3.85,9.4,1.65,18.4-5.18,25.55-7.57,7.93-18.54,13.54-28.67,12.79-8.44-.62-25.6-8.83-25.59-20.18l.12-214.55,2.54-38.23,7.89-91.28,14.76-100.38c11.31-76.92,45.85-172.38,81.89-242.14,20.1-38.91,45.24-72.47,73.31-106.21,105.19-126.42,212.51-186.6,371.39-226.36l74.38-14.25c82.29-15.77,239.95-16.76,320.98.17l92.88,19.4,98.31,34.21c97.9,41.59,183.93,104.04,251.62,186.68,91.28,111.45,145.94,249.84,164.05,392.44l10.91,85.9,5.01,91.37,1.4,205.59c.08,11.55-1.5,18.87-9.62,26.59-10.6,10.06-24.32,12-35.93,5.99-15.24-7.89-12.8-19.04-12.84-33.95l-.44-169.59-6.93-114.19-8.99-70.82c-6.37-50.17-19.54-97.42-32.7-146.5-22.81-85.04-64.8-159.12-118.85-227.68-85.95-109.03-205.03-174.45-338.41-208.54-43.98-11.24-85.97-19.04-131.14-21.23-68.83-3.34-134.05-1.62-205.14.17Z"/>
  <path d="M1579.76,790.55c-26.46,71.47-101.46,153.35-167.44,197.5-126.53,84.66-267.77,101.7-411.97,50.81-69.38-24.49-130.44-65.48-180.49-119.41-50.73-54.66-90.48-117.68-110.29-189.69-20.41-74.21-24.78-149.69-9.29-224.4l12.33-46.91c48.97-153.9,170.36-277.93,327.87-318.91,24.87-6.47,49.82-12.25,75.55-14.83,119.02-11.92,249.61,33.54,339.77,111.39,31.66,27.34,55.42,58,79.85,91.34,37.33,50.95,59.9,108.26,74.05,169.94l9.39,70.29,1.52,44.36c.93,27-3,54.75-9.29,80.87l-8.58,35.6-22.97,62.06ZM887.01,900.72c26.05,22.54,51.78,44.06,82.24,56.99l60.37,25.64c75.32,25.26,158.88,26.67,236.39,4.58,169.18-48.21,283.74-201.26,295.01-374.84,2.17-33.42-4.56-87.03-14.66-120.19-39.43-129.41-104.57-209.94-226.87-269.57-47.83-23.32-96.41-33.57-149.24-36.64-30.11-1.75-59.7,2.85-90.26,7.09-36.49,5.05-69.49,18.82-101.71,36.38-29.64,16.16-57.77,32.53-83.42,55.57-37.69,33.86-69.65,74.35-94.85,118.41-25.11,43.92-35.31,91.02-43.42,139.84-6.38,38.43-8.45,74.24-.58,112.53l9.55,46.46,13.93,42.11c10.88,32.89,28.19,61.35,49.64,88.66,18.13,23.09,34.64,46.86,57.89,66.98Z"/>
  <path d="M1255,2204.02l-73.01,41.73c-17.84,10.2-33.72,10.45-51.49,1.18-72.61-37.89-137.15-84.89-197.24-140.73-47.53-44.17-108.45-115.67-125.3-175.35l-14.23-50.41c-11.68-41.36-2.33-102.89,16.99-143.96,30.12-64.01,92.94-107.88,163.22-113.92,47.59-4.09,89.85,2.58,129.58,27.89,14.86,9.46,29.52,18.94,40.71,32.84,2.35,2.91,6.22,6.9,8.87,7.45s7.65-2.21,10.83-4.26c32.24-38.43,77.84-59.87,128.19-63.38,114.27-14.6,211.59,68.96,226.58,180.66,2.81,20.92,4.44,40.9,1.35,61.89-8.09,54.94-28.07,103.67-60.54,148.9-32.79,45.68-70.83,84.68-113.68,121.57l-90.84,67.91ZM1372.95,2027.94c33.33-36.22,59.67-76.59,77.28-122.32,35.51-92.19-4.76-192.71-99.4-219.77-29.97-8.57-56.76-8.22-85.9,2.06-72.84,25.71-88.99,82.63-112.15,80.05-5.52-.62-14.88-6.82-19.23-12.61-28.12-37.43-65.38-65.79-113.96-74.03-66.39-11.26-133.66,30.86-158.74,92.24-17.72,43.36-16.57,83.83-.84,126.74,33.55,91.49,120.37,179.56,200.86,233.89l75.88,51.22c5.22,3.52,17.8,10.83,23.58,7.21l36.88-23.09c64.45-40.35,123.9-85.25,175.73-141.58Z"/>
  <path d="M2065.37,563.6c-6.37,1.36-17.36-6.9-21.33-12.63-27.85-40.18-58.32-75.5-90.19-112.71l-40.44-47.21c-9.86-11.51-3.42-24.88,6.89-33.55,5.54-4.65,14.22-10.83,20.24-10.65,5.64.17,16.77,4.95,21.7,9.89,46.13,46.23,85.97,96.05,123.61,149.68,4.48,6.39,11.48,19.1,10.9,25.71-1.33,15.05-14.96,27.97-31.38,31.47Z"/>
  <path d="M283.75,534.18c-8.18,10.91-12.99,24.71-28.19,27.43-14.54,2.59-38.12-14.71-35.52-31.7,2.47-16.12,17.46-29.55,26.56-43.04,32.35-48,67.7-91.81,109.11-131.79,11.81-11.4,24.03-7.98,35.23,2.62,9.74,9.21,16.14,22.45,5.51,35.28l-71.63,86.47-41.06,54.74Z"/>
  <path d="M257.21,1934.94c-5.82,5.2-15.52,11.02-22.27,11.02-5.88,0-16.65-6.1-20.45-12.25l-39.46-63.86c-23.09-37.37-42.54-74.95-56.59-117.36.24-9.95,11.9-19.41,20.21-23.96,11.39-6.24,27.11-6.16,33.8,6.45l34.62,65.25,57.92,100.38c7.3,12.65,4.1,23.72-7.79,34.34Z"/>
  <path d="M2076.12,1944.37c-14.67-1.92-28.06-16.38-28.44-28.84l39.53-73.4,52.62-103.14c3.11-6.1,9.14-13.61,14.21-15.4,17.58-6.2,46.16,17.33,41,31.73-13.86,38.7-32.25,73.94-53.48,108.56l-42.61,69.49c-3.45,5.62-14.69,12.07-22.83,11Z"/>
  <path d="M2260.23,1239.75c-9.69-8.61-7.03-20.74-7.43-31.11l-3.44-89.5-5.61-56.59c-1.36-13.73-4.41-25.38,7.11-34.67,9.53-7.68,21.13-10.96,33.52-4.67,11.54,5.86,15.43,15.57,17.6,29.78,9.24,60.5,16.61,120.09,9.52,181.93-9.43,14.15-37.32,17.22-51.28,4.83Z"/>
  <path d="M2200.33,1573.03l13.14-40.06,18.09-73.36,11.02-62.39c2.78-15.75,16.69-27.33,30.15-24.69,17.45,3.42,27.68,15.46,26.11,33.47-4.9,56.18-16.98,109.09-36.55,161.59.8,19.8-10.37,35.41-30.72,35.23-12.94,2.56-36.5-13.74-31.23-29.78Z"/>
  <path d="M2224.45,894.21c-19.92-2.69-21.53-19.22-26.73-32.43l-61.66-156.33c-5.51-13.98,15.5-29.22,27.86-30.66,15.22-1.77,26.73,10.86,32.89,24.12,25.52,54.9,46.87,109.94,63.96,168.77-2.19,14.76-22.13,28.44-36.32,26.53Z"/>
  <path d="M120.38,869.53c-3.5,12.27-14.68,26.7-28.63,26.54-13.98-.16-29.55-14.65-33.13-28.43,17.74-55.87,36.19-108.89,59.56-161.78,5.71-12.93,14.68-27.19,28.85-30.62s36.33,11.88,34.94,27.48c-1.06,11.9-7.45,25.2-12.57,36.2-19.96,42.92-35.97,84.87-49.02,130.61Z"/>
  <path d="M111.84,1575.7c2.01,16.57-27.46,28.79-39.22,24.31-16.87-6.44-20.68-23.47-24.58-38.55l-19.36-74.75-12.5-72.82c-2.36-13.76-1.36-23.71,10.29-33.06,8.08-6.49,19.31-9.89,29.58-5.32,8.46,3.76,14.54,13.61,16.36,23.91l8.82,49.86,15.31,63.9c4.8,20.02,12.58,40.05,15.31,62.52Z"/>
  <path d="M59.86,1213.71c.08,8.22-4.07,19.83-8.65,23.41-16.46,12.88-48.18,5.12-49.44-8.35-5.41-58.08,2.31-113.33,13.67-170.13-1.41-17.01,6.48-33.49,25.04-37.98,11.42-2.76,33.87,9.56,33.36,23.8-.82,22.74-4.99,44.7-8.13,67.23-4.73,34-6.22,65.43-5.85,102.01Z"/>
</svg>