<?xml version="1.0" encoding="UTF-8"?>
<svg id="SHI" xmlns="http://www.w3.org/2000/svg" viewBox="0 0 2314.34 2404.7">
  <path d="M1502.92,1362.19c-51.5,49.27-104.42,96.59-178.25,96.73l-322.92.6-25.28-1.95c-16.55-1.28-35.2-.49-50.36-7.59-27.97-13.11-51.12-32.14-73.4-53.04l-85.36-80.07-187.14-180.5-75.7-75.62c-18.27-18.18-38.57-31.49-64.62-38.09-44.7,2.67-84.33,38.84-85.72,84.87-.63,21.01,10.25,42.58,24.15,57.37l176.99,188.52,91.23,95.95,214.36,230.02c15.54,16.67,19.86,36.09,19.86,58.57l.03,625.56c0,14.69,1.74,25.45-11.14,33.02-10.45,6.14-24.82,5.67-34.63-1.5-12.51-9.14-8.53-21.34-8.55-35.58l-.12-136.93.47-117.06.78-377.15-89.19-96.78-270.92-286.06-49.19-50.51-55.78-59.4c-21.32-22.7-42.85-45.42-53.91-75.33-11.02-29.8-11.8-63.76-3.19-94.1,10.63-37.48,39.29-64.68,73.23-80.42,55.39-25.69,114.71-12.02,157.97,29.26l118.03,112.64,107.68,103.87,74.89,70.79,63.87,57c27.3,24.36,37.24,36.22,79.64,42.94,2.37-1.68,5.95-10.12,4.01-11.86l-9.77-8.83c-44.94-40.59-67.14-86.48-82.4-145.87-5.88-22.9-13.13-45.85-11.49-69.85l2.43-35.69c1.87-27.46,9.73-53.27,19.65-79.32,40.09-105.21,141.25-176.37,255.15-178.09,66.57-1.01,128.62,27.65,179.5,68.98,33.56,27.26,57.39,61.39,75.49,100.79,38.47,83.75,33.6,182.25-9.49,264.67-16.57,31.7-39.93,58.01-67.24,80.97-1.01,2.09-3.48,8.41-1.45,9l9.8,2.82c28.29-5.08,51.02-19.63,73.17-37.56l50.75-48.04,108.01-103.42,40.19-37.32,167.19-159.12c38.52-36.66,99.59-52.02,148.78-33.17,35.19,13.49,64.61,38.23,77.6,74.15,19.88,54.95,9.86,101.24-25.81,145.75l-18.25,22.77-100.71,105.34-82.44,85.31-96.18,101.62-90.88,98.9-104.56,108.92v639.47c0,18.03-2.66,29.98-20.62,35.94-11.18,3.71-34.95-1.96-34.89-19.28l.26-80.89-.06-447.16.28-120.99c.06-26.25,14.02-46.07,30.46-63.67l95.74-102.53,99.97-105.9,95.27-99.93,67.7-72.35,88.95-95.22c15.41-16.5,33.23-29.85,41.94-51.46,9.17-22.78,8.35-48.37-2.56-69.11-19.55-37.17-58.97-53.79-97.97-36.36-16.51,7.38-30.78,19.37-44.09,32.26l-82.37,79.73-85.17,80.03-141.69,135.56ZM1220.59,1392.97c68.52-22.26,138.17-97.68,152.74-167.74,5.57-26.76,13.33-54.13,8.27-80.64l-8.43-44.17c-14.18-58.45-54.66-107.04-104.88-137.73-22.13-13.52-43.98-20.29-68.31-25.91-29.94-6.92-58.43-6.08-88.03,1.46-17.3,4.4-33.83,7.96-49.59,16.41-72.77,39.04-121.07,111.31-124.23,194.34-3.36,88.35,35.48,173.13,109.12,220.67,39.4,25.44,84.83,39.29,131.59,33.38l41.75-10.06Z"/>
  <path d="M1146.04,593.46l-144.19,83.77c-9.87,5.73-19.6,11-31.68,13.11-13.58,2.36-37.04-14.67-34.77-29.78l9.45-62.76,19.48-100.65,6.37-32.2c2.62-13.22,1.62-19.32-7.68-28.02l-129.03-120.74c-7.74-7.25-18.1-16.91-18.82-27.33-1.51-21.78,16.59-37.9,36.85-39.54,62.1-5.01,126.38-16.73,188.18-29.02,9.62-4.13,15.02-20.51,18.9-29.89l49.13-118.62c12.75-30.79,25.02-73.12,51.02-71.76,8.79.46,22.07,7.36,26.36,16.78l31.98,70.21,53.58,124.09c4.81,11.14,13.51,13.21,24.19,14.74l172.87,24.78c13.74,1.97,23.98,3.65,30.86,15.61,5.36,9.32,9.27,26.24-.96,35.92l-79.03,74.78-71.48,69.03,3.29,23.74,17.92,99.97,13.68,80.28c2.15,12.59-.31,20.96-10.61,29.65-5.64,4.76-17.72,15.49-26.07,13.11-19.04-5.42-34.27-14.69-50.65-24.34l-122.69-72.25-12-8.77c-3.05-2.23-10.15,3.58-14.46,6.09ZM1161.13,528.15c36.21,17.78,67.65,35.49,99.73,56.24l35.1,22.69c7.29,4.71,11.42,9.6,21.81,8.44l-4.1-27.95-11.05-74.73-15.81-78.24c4.27-8.2,10.29-17.81,17-24.61,33.67-34.1,67.75-65.04,103.76-96.84,4.43-3.91,7.43-12.74,4.13-15.25-18.9-.07-35.95-2.44-53.33-5.64l-109.68-20.18c-10.61-1.95-19.17-19.37-23.08-28.58l-55.08-129.98c-2.57-6.06-3.5-19.03-14.05-14.9-6.63,2.59-7.39,17.88-10.17,24.26l-33.45,76.74-21.57,53.12c-2.79,6.87-9.78,19.15-17.66,20.4l-149.36,23.76-22.05,2.64c.53,13.08,10.98,16.44,18.43,23.36l91.21,84.67c6.7,6.22,13.85,16.56,16.41,24.56l-23.86,142.92-8.37,29.31c-.99,3.45,8.53,9.74,11.36,7.86l10.82-7.15,115.7-68.53c6.38-2.24,19.51-12.18,27.2-8.4Z"/>
  <path d="M1585.99,746.73c17.72-32.96,51.05-43.88,58.77-53.1l64.11-76.53c19.92-23.78,40.67-45.25,57.63-71.76,4.38-6.84-5.55-16.44-13.07-16.5l-87.28-.66c-13.93-.11-24.05-16.96-23.31-28.36,1.04-16.09,13-26.45,29.28-26.53l128.82-.66c10.64-.05,23.67-6.42,34.47-3.68,13.72,3.48,24.4,19.74,22.75,33.9-1.33,11.43-12.2,22.95-21.76,26.98l-19.82,8.33-66.36,90.2-60.12,74.33c-20.07,24.82-51.73,82.59-85.24,74.59-13.78-3.29-17.18-17.09-18.89-30.55Z"/>
  <path d="M736.9,746.73c-17.75-32.96-51.12-43.88-58.86-53.1l-64.21-76.53c-19.95-23.78-40.73-45.25-57.72-71.76-4.38-6.84,5.56-16.44,13.09-16.5l87.42-.66c13.95-.11,24.09-16.96,23.35-28.36-1.05-16.09-13.02-26.45-29.32-26.53l-129.02-.66c-10.66-.05-23.71-6.42-34.52-3.68-13.75,3.48-24.44,19.74-22.79,33.9,1.33,11.43,12.22,22.95,21.8,26.98l19.85,8.33,66.46,90.2,60.21,74.33c20.1,24.82,51.81,82.59,85.37,74.59,13.8-3.29,17.21-17.09,18.92-30.55Z"/>
  <path d="M1161.94,2404.03c-10.58,3.45-28.39-7.01-31.3-18.11l.08-180.85c0-13.33,20.62-23.19,29.24-21.07,23.68,6.52,31.48,24.42,27.09,45.49l-.73,136.67c-.04,8.42,2.34,17.42-2.32,24.95-3.15,5.09-11.85,9.59-22.07,12.92Z"/>
</svg>