<?xml version="1.0" encoding="UTF-8"?>
<svg id="Communication" xmlns="http://www.w3.org/2000/svg" viewBox="0 0 2314.34 2404.7">
  <path d="M1504.38,1313.88l71.32-19.66c15.57-4.29,33.37-19.26,33.38-36.58,0-14.7-9.89-29.67-18.15-41.5l-77.34-110.8-88.69-121.15c-11.41-15.58-22.92-30.97-29.02-49.54-6.45-19.64-4.06-40.71-6.72-61.24l-11.53-88.85c-3.72-28.63-12.82-54.78-20.95-82.56-31.86-108.85-91.35-200.09-172.82-278.22-21.22-20.35-42.77-36.79-66.49-54.24-68.22-50.18-142.58-83.81-225.76-102.43-78.45-17.56-156.8-25.83-236.56-13.27-122.88,19.34-224.65,57.46-322.28,134.17-29.27,23-55.68,46.07-80.9,73.54-43.67,47.56-81.78,97.76-109.27,156.54-17.05,36.45-31.76,71.28-45.1,109.13l-16.42,58.92-12.63,65.37-6.09,61.21c-3.17,31.8-3.26,63.56.18,95.34l6.29,58.03,16.12,75.87c9.84,46.32,28.97,88.39,46.81,132.55,20.07,49.66,46.88,94.19,76.76,138.6,41.43,61.55,73.65,119.04,90.33,192.6,13.86,61.12,19.8,163.74,13.91,225.82l-5.1,53.83-6.22,77.73-17.44,101.78c-2.67,15.6-5.25,26.29-20.09,34.95-8.55,4.99-16.98,4.13-25.64-1.09-13.66-8.25-16.37-18.11-13.6-33.33l11.59-63.72,15.17-113.77c9.41-107.34,8.49-214.92-24.19-317.07-10.05-31.42-25.84-58.32-43-85.95l-70.9-114.13c-43.46-69.95-77.8-175.62-95.53-257.55-9.11-42.11-11.87-84.41-16.17-127.66-2.39-24.01-1.91-45.74-.12-70.22,12.37-169.69,60.65-302.93,160.29-440.64,34.75-48.02,76.16-89.34,122.19-126.83,52.48-42.74,109.8-75.54,171.98-102.6,76.63-33.35,157.46-47.46,240.14-54.6,46.36-4,89.89-1.05,135.9,3.65,33.68,3.44,64.34,10.7,96.84,18.59,150.67,36.57,282.64,132.71,376.17,254.85l40.07,61.45c28.52,49.94,53.63,99.91,67.73,156.06l24.15,96.2,13.61,130.18c9.99,25.92,30.68,47.29,46.95,70.07l121.37,169.93c15.74,22.04,31.26,43.38,40.43,68.67,22.57,62.27-23.09,121.07-82.41,135.06l-43.44,10.24c-3.3.78-7.29,1.58-9.25,2.66-2.46,1.35-3.42,9.49-2.61,12.94l16.33,69.39c7.07,30.04-10.32,55.82-38.82,65.04l-53.38,9.78c-4.52.83-11.32,7.63-11.09,11.23.84,12.92,43.49,8.51,62.23,34.21,18.11,24.84,11.25,59.78-9.63,80.84l-18.89,23.41-.55,86.98c-.14,22.71-10.1,46.31-19.48,66.31-15.37,32.77-39.47,56.84-71.04,72.58-35.83,17.87-72.9,28.71-113.71,26.56-67.61,1.9-133.55-5.21-198.58-22.89l-8.71,1.65c-2.3.44-2.28,6.62-2.26,9.46l.46,62.02.23,117.57-.75,73.07c6,20.07-2.54,40.91-24.08,47.3-13.74,1.67-32.37-9.02-32.32-25.01l.64-197.09.19-117.04c.02-15.63,5.98-35.88,24.65-38.45,17.6-2.42,36.42,6.36,53.58,9.26l89.18,15.12c28.17,4.77,55.24,5.97,83.85,6.01,80.21.11,151.25-32.32,163.45-114.11,7.64-51.21-16.04-72.23,17.5-122.76l19.45-29.3c-11.42-13.51-23.63-18.77-38.98-24.48l-38.86-14.46c-16.27-6.05-36.62-19.77-35.09-39.41s23.03-29.33,39.88-32.71l91.18-18.32c27.57-5.54-7.51-71.43-9.96-125.5-1.05-23.25,29.64-29.05,46.14-33.6Z"/>
  <path d="M2186.93,1876.43c-10.59,18.23-23.95,33.54-37.54,47.75-11.78,12.31-28.98,12.41-39.28,1.95-11.72-11.9-11.94-26.55-1.93-40.12,43.4-58.83,78.46-120.7,104.12-189.79,18.1-48.74,28.5-98.74,36.23-150.57l6.19-78.21-2.61-47.32c-2.44-44.27-6.42-85.46-16.97-128.07-22.92-92.58-61.12-177.44-119.21-253.44-5.78-7.56-13.1-19.01-13.38-27.93-.53-16.92,19.08-31.89,35.07-27.79,28.57,7.31,70.43,84.99,89.84,121.1,16.21,30.16,31.24,59.4,42.1,92.22,11.52,34.8,22.38,69.65,27.85,106.06l12.19,81.23c6.35,42.32,5.79,81.98,1.39,124.18-7.15,68.45-17.06,134.16-39.64,199.24-11.71,33.76-23.78,65.1-41.66,95.88l-42.78,73.64Z"/>
  <path d="M1973.75,1781.02c-16.32,2.11-31.68-16.42-32.99-30.29l51.16-84.3c17.29-28.48,25.58-60,34.52-91.9l11.71-61.67c4.93-25.96,5.63-50.28,2.89-76.98-7.39-71.91-25.08-141.58-62.01-204.25l-30.04-45.63c-7.76-11.78-5.04-22.68,4.37-32.11,10.32-10.34,23.8-12.76,35.75-2.19,27.69,24.46,71.78,103.37,81.27,140.2l27.13,105.4c3.12,48.1,4.86,96.15-3.32,144.27-13.55,79.72-43.72,152.14-90.45,217.44-6.67,9.32-16.97,20.32-29.99,22Z"/>
  <path d="M1793.13,1626.8c-9.64-10.11-12.12-21.58-4.39-32.23,17.65-24.32,26.45-51.9,33.95-80.84,8.24-31.83,8.85-61.46,1.41-93.68-4.03-17.49-7.48-34.98-16.45-50.85l-24.15-42.75c-6.55-11.6,9.96-25.08,18.84-28.75,35.87-14.81,70.48,67.46,77.96,111,4.01,23.36,8.5,47.01,5.35,70l-6.49,47.34c-5.16,37.68-48.96,139.67-86.03,100.78Z"/>
</svg>