<?xml version="1.0" encoding="UTF-8"?>
<svg id="Base_Layer" data-name="Base Layer" xmlns="http://www.w3.org/2000/svg" viewBox="0 0 2314.34 2376.47">
  <path d="M67.57,1039.24l-.29,157.97.02,197.42,1.23,295.61-.36,67.99-.1,498.46c10.48,26.96,31.61,44.53,58.31,52.35l340.68-.3h286.71s375.45.21,375.45.21l321.54.36,289.5-2.13c21.67-4.92,44.14-33.46,44.22-56.03l1.1-299.45-.16-142.96c-.02-15.75,6.71-24.54,20.42-31.2,6.65-3.23,17.56-7.79,24.6-7.69,16.19.22,24.78,28.11,24.75,54.61l-.46,432.59c-.05,46.63-56.65,117.22-117.62,117.47l-283.6,1.18-1043.16.04-293.63.73C49.23,2366.42-1.61,2307.43.04,2240.13l1.19-62.86-.85-427.08.22-192.1.71-697.82-.24-64.81L3.26,127.88C3.48,59.96,61.24,13.38,124.92,0l1156.48.09c25.09,0,44.58,3.17,62.15,22.17l189.09,204.5,66.35,70.87,68.88,74.79,156.45,167.34c20.45,21.87,32,40.33,31.61,72.14l-2.1,167.16.15,77.74-1.68,40.8c-.64,15.53-9.09,23.26-23.58,25.86-9.31,1.67-20.63,2.75-27.58-1.56-8.28-5.14-14.58-16.26-14.67-27.18l-1.98-253.81c-5.64-9.59-19.21-7.56-28.48-7.6l-122.22-.52-223.32.51c-36.49.08-65.99-5.75-93.57-31.74-24.45-23.03-36.69-50.62-36.74-86.02l-.35-262.13.04-98.62,1.09-67.75c.08-4.89-3.39-14.97-7.5-16.85-4.28-1.96-13.7-2.11-19.96-2.07l-211.68,1.22-92.53-.07-402.19-.9-169.2.83-244.32-.17c-44.42-.03-67.75,45.28-67.19,83.18l1.19,80.76.03,372.12v434.16ZM1744.89,550.4l-23.84-21.26-87.56-94.42-114.12-124.14-55.76-62.17-99.11-104.73c-5.18-5.47-13.05-18.47-19.68-15.41-11.74,5.42-2.21,18.16-2.2,25.59l.19,368.16c8.95,18.3,22.02,33.18,39.82,43.27l296.81-.35,59.48-.7c2.36-.03,6.25-1.31,7.92-2.26s-.43-10.22-1.95-11.58Z"/>
  <path d="M1146.62,2171.75l-171.06,59.22c-11.76,4.07-20.94,4.55-29.99-1.55-19.65-13.25-16.17-24.62-10.62-42.57l84.06-271.55,28.09-93.44c6.81-22.65,24.88-38.18,40.8-55.05l16.98-18.01,118.01-120.39,106.85-109.98,211.68-217.78,109.49-116.22,56.92-58.29c38.68-39.61,76.43-77.61,112.07-120.06l43.25-43.08,129.42-124.91c12.19-11.76,26.9-24.03,44.35-25.64,49.59-4.57,74.79-4.57,107.58,28.54l139.06,140.41c22.92,23.14,30.25,50.81,30.77,81.94.57,33.95-9.89,60.52-34.06,85.21l-122.41,125.06-41.53,41.97-221.35,226.71-62.94,64.84-99.13,104.48-127.54,130.1-123.23,128.5-113.23,115.67c-17.87,18.25-38.14,29.02-62.89,32.53l-159.38,53.33ZM2130.58,1206.83l99.14-103.19c19.83-20.64,23.41-55.16,1.95-77.2l-93.7-96.24-38.86-37.18c-20.31-19.44-49.21-20.36-68.51-.99l-52.37,52.55-55.65,56.15c-5.6,5.65-3.81,13.36,1.89,19.05l182.97,182.63c3.31,3.3,6.73,10.83,10.33,10.86,3,.02,9.95-3.45,12.82-6.44ZM1323.14,2007.52c4.84,5.48,9.17,11.24,14.86,11.61,4.27.28,9.55-6.7,13.58-10.87l152.97-158.49,59.31-62.21,103.21-106.75,114.7-117.84,154.13-157.34,65.39-68.48,53.78-58c4.08-4.4,13.64-10.93,12.31-16.68l-59.28-62.44-95.13-101.99-45.18-41.04-20.54,20.96-103.2,106.7-89.61,92.03-145.78,153.23-105.32,108-68.71,71.57-105.54,110.78c-29.74,31.22-56.88,60.08-90.16,88.92,2.02,10.6,10.63,15.32,17.86,22.59l98.35,98.81,68.01,76.94ZM1199.55,2086.54l63.16-17.95c5.83-1.66,14.69-7.73,15.02-13.43.26-4.46-8.75-10.23-11.98-13.85l-42.28-47.35-114.13-114.62-11.8.12c-1.93.02-2.35,5.95-2.92,7.91l-12.45,42.51-35.68,120.33-19.1,60.7c-1.62,5.16-3.14,14.44-1.69,18.75,1.44,4.31,12.63,8.09,17.1,7.11l32.69-7.18,124.06-43.03Z"/>
  <path d="M1495.44,1028.3l-129.55-1.6-1021.97-1.41c-18.22-.03-22.57-27.56-20.07-38.87,3.41-15.46,16.36-25.32,35.8-25.32l1131.87-.21c23.37,0,44.45,11.27,40.15,37.11-2.77,16.67-19.54,30.52-36.23,30.31Z"/>
  <path d="M1242.05,1381.93l-196.2-1.13-198.91.05-320.17.07-167.83,1.07c-21.73.14-37.74-18.2-35.76-36.45,2.66-24.52,19.46-32.19,42.29-32.16l315,.37,356.35.38,210.42-.46c15.7-.03,29.57,25.12,24.31,37.78-5.47,13.16-17.14,22.78-29.5,30.49Z"/>
  <path d="M1067.84,636.35c.65,15.64-14.23,38-31.57,37.98l-471.85-.59-113.37-.64c-35.92-.2-71.58,4.5-106.81-2.47-16.31-3.23-23.98-24.85-22.32-36.99,2.43-17.75,13.04-30.42,31.86-30.67l40.43-.53,335.85.33,183.89-.03,126.02-.18c13.88-.02,27.26,18.91,27.88,33.79Z"/>
  <path d="M861.41,1735.4l-507.67-.31c-20.76-.01-31.8-17.71-30.92-34.53.98-18.75,10.94-30.56,30.16-30.52l505.36,1.05c23.89.05,38.88,5.97,41.16,31.6,1.82,20.48-15.13,32.72-38.09,32.71Z"/>
</svg>