<?xml version="1.0" encoding="UTF-8"?>
<svg id="Accommodations" xmlns="http://www.w3.org/2000/svg" viewBox="0 0 2330.21 2447.83">
  <path d="M1950.92,2379.16l-10.7,10.39-18.53,15.48c-13.38,11.18-29.26,19.95-46.47,23.81-9.98,2.24-19.5,5.94-30.5,5.94H483.35c-9.33,0-16.94-2.94-25.1-5.62l-26.41-8.67c-20.3-9.78-37.44-22.28-52.7-38.57-9.17-9.79-17.77-19.2-23.35-31.74-4.49-10.1-12-20.28-13.71-31.37l-5.57-36.17-1.66-58.07-.4-654.64,1.13-8.8-.56-177.03-.66-900.07,4.55-20.9c1.37-6.31.81-14.23,3.04-20.35,8.58-23.5,25.57-48.8,43.31-66.46,11.78-11.73,26.43-19.06,40.45-27.4,6.31-3.76,12.32-5,19.37-6.73,12.33-3.02,23.58-8.58,36.76-8.49l90.49.64c11.74.08,22.39,0,34.16-.05l119.55-.54,10.56,2.12c9.27.23,14.27-7.74,12.96-16.22-2.77-17.96-1.49-52.77,7.04-67.58l8.2-14.24c4.72-8.2,11.08-16.02,19.27-21.76,9.49-6.65,34.58-17.93,43.95-17.91l107.26.17c7.98.01,28.46,4.54,30.06-11.27,1.97-19.53,11.38-46.59,20.88-64.35,9.17-17.15,19.12-32.95,32.96-46.66,14.6-14.45,28.76-28.84,47.35-37.82l24.54-11.85c16.33-7.89,34.55-10.6,52.9-12.44,14.96-1.5,29.94-.79,45.02-.3,10.19.33,19.83,3.84,29.26,6.7,21.22,6.43,45.27,17.3,61.46,32.31l21.83,20.25c11.4,12.42,22.25,24.42,32.03,38.14l6.68,12.04c4.19,7.55,7.05,14.97,10.09,22.89,5.49,14.28,9.59,27.84,10.25,43.23.18,4.19,4.49,8.79,8.93,8.8l127.83.32c16.41.04,44.07,12.19,55.34,24.5,4.85,5.3,11.29,10.69,13.81,17.48l6.69,18.01c10.12,27.27-1.02,62.81,2.86,70.26,4.68,8.99,12.83,5.28,20.37,5.28l191.2-.17,7.01.82c5.62-.96,10.97-.14,16.65-.05l40.82.63c9.92.15,18.86,5.61,28.54,7.37l11.96,2.16c20.68,10.03,40.26,21.73,56.59,38.11,22.79,22.87,44.74,65.87,45.15,97.03l.94,69.94-.03,8.91.53,18.5.02,242.68.03,11.25v803.21s-.75,19.58-.75,19.58l.21,213.06.16,34.1-.05,89.97v161.35s-.03,87.69-.03,87.69l.48,41.57c.16,13.42-10.08,50.25-17.32,60.78l-13.34,19.4-14.27,17.38ZM1210.91,482.83l5.4.54,151.01-.6,131.18-.6c15.76-3.74,27.54-13.63,30.76-29.51l.69-97.25,1.08-49.18c.2-8.91,1.76-18.16-.05-26.93-3.1-15.06-13.7-25.61-27.75-31.37-11.03-4.52-22.24-2.23-33.71-2.16l-103.77.61c-9.51.06-18.62,2.98-28.14-.72-8.55-3.32-20.03-12.12-21.39-21.93-1.78-12.77-.11-25.25-3.96-37.7l-8.38-27.08c-7.2-23.27-36.54-56.93-58.69-70.6l-18.17-11.21c-20.88-12.88-59.33-20.36-83.07-16.15-12.91,2.29-25.38,5.59-37.56,10.27l-19.17,9.87c-17.72,11.07-33.07,25.45-44.69,42.6-13.59,20.07-23.16,40.88-29.63,64.1-2.94,10.57-2.36,21.4-2.53,32.57-.1,6.48-4.78,11.22-8.97,15.62-4.97,5.21-10.44,9.85-18.39,9.93l-84.14.79c-14.84.14-28.91.86-43.57.09-7.98-.42-16.73-1.67-24.55.03-8.8,1.91-17.31,7.78-23.1,13.7-7,7.15-10.78,14.18-10.16,24.17l1.03,16.48.3,148.2c.02,11.02,16.87,28.66,29.74,33.35,5.95,2.17,12.04-.45,18.33-.45l214.26-.09c9.64,2.74,18.42.36,27.96.34l111.58-.17,10.22.46ZM1944.55,1471.85l-.11-91.93-.05-192.84-.05-703.04c-3.17-23.19-11.93-43.08-26.31-60.79-5.83-7.18-12.73-12.78-19.93-18.63-6.93-5.64-13.67-9.93-22.21-13.01-6.24-2.25-13.38-6.18-20.24-6.25l-41.94-.43-7.67.05-208.61.21c-6.4,0-13.46-3.5-18.67,1.76-3.09,6.35-.38,15.51-.4,22.71l-.12,41.68c-.03,11.24-3.14,20.64-8.18,30.37-3.25,6.27-6.06,12.16-10.86,17.46-6,6.64-12.05,14.38-19.98,18.36l-21.32,10.7c-3.87,1.94-10.71,3.05-15.27,3.12l-47.37.71-50.71-.02-148.08-.02h-175.62s-251.23-.83-251.23-.83c-12.66-.04-22.97-4.51-33.36-10.15-5.57-3.02-11.49-5.47-16.04-9.8-9.63-9.17-18.39-19.12-23.48-31.48-2.33-5.67-6.77-12.63-6.86-18.71l-.73-50.86.4-14.66c.1-3.52-1.54-8.65-4.02-10.31-3.36-2.24-7.37-2.21-11.44-1.63l-10.33,1.47-84.63-.38h-99.42s-57.88.49-57.88.49c-9.06.07-18.34,1.1-26.17,5.37-13.1,7.14-26.02,13.57-36.5,24.44-8.36,8.68-16.1,19.03-20.86,30.02l-9.68,22.35c-2.96,6.82-3.84,13.03-3.84,21.03l.05,239.49-.03,575.03.03,290.08.12,680.06c3.73,28.44,15.27,54.8,33.93,75.93,9.81,11.1,29.52,21.56,44.15,27.42,5.47,2.19,11.24,5.62,17.99,5.62l1361.3.03c9.19,0,16.16-2.15,23.97-5.62l19.46-8.65,16.61-10.44c5.15-3.23,10.52-8.69,13.95-13.76l9.93-14.68,11.27-22.6c5.22-10.46,5.85-21.54,6.19-32.98l.71-23.7v-420.48s.15-235.92.15-235.92l-1.23-15.67-.08-99.06,1.3-6.62Z"/>
  <path d="M891.85,887.71c4.52-.84,9.61-.44,13.21,1.98,3.32,2.23,6.1,7.4,6.1,12.31l.11,146.67c0,6.51.84,13.65-1.04,19.87-8.49,28.11-29.98,47-57.9,55.31-12.5,3.72-24.94,2.21-37.68,2l-53.29-.89-13.15.12h-136.5c-5.63,0-13.6-2.57-18.58-4.77-25.58-11.28-47.15-37.02-51.32-65.24l-.05-23.4-1.3-12.9-.28-84.11,1.34-9.42.19-106.47c.01-8.28,3.1-18.33,6.62-25.78,11.32-23.96,34.84-41.06,61.26-46.51l195.6-.14c24.24-4.21,38.46-.05,46.57,23.23-3.03,8.76-6.8,16.92-12.77,22.56-6.94,6.54-13.65,5.76-22.02,5.27l-22.56-1.31-165.09-.69c-9.5-.04-17.57-.34-25.23,5.58s-13.61,12.56-13.39,22.73l.63,29.67.51,194.59c.02,8.11,5.44,13.4,10.74,18.62,9.9,9.41,23.59,11.44,37.35,8.32l185.12.07c20.65,4.8,39.93-13.79,39.9-32.89l-.15-100-.97-20.26c-.61-12.87-3.78-28.18,13.29-31.36l14.72-2.75Z"/>
  <path d="M865.27,1931.52c0-6.11,4.59-9.27,9.47-9.85l19.98-2.37c3.28-.39,8.49-.41,10.95,1.51,2.08,1.62,5.2,5.56,5.2,9.12l.02,160.74c-4.43,14.58-16.66,28.82-28.01,38.95-12.83,11.46-28.06,18.04-45.71,16.31l-16.28.99-92.85.76-92.41.06-26.43-.83c-16.09-.51-29.55-8.98-41.75-18.92-12.96-12.77-21.83-28.49-26.09-46.43l.17-91.23.15-144.88c.02-17.27,13.64-42.92,27.37-54.26,12.23-9.68,24.97-17,40.52-20.47l161.46-.71,40.09-1.23c9.8-.3,19.01-2.5,26.66,4.92l13.05,12.67c3.04,2.95,4.51,9.88,1.73,13.41l-10.77,13.68c-7.95,10.1-18.58,10.34-30.55,9.23l-17.37-1.6-176.22-.08c-7.97,0-27.18,14.14-26.96,27.9l.56,34.61.04,155.27-.8,26.49c-.19,6.42,1.73,12.63,6.12,17.31l12.89,13.73c1.73.59,6.2,1.45,8.03,1.43l151.8-.96,68.59.75c8.63.09,14.51-3.84,19.18-10.19,3.99-5.43,8.02-11.31,8.02-18.91l.12-136.94Z"/>
  <path d="M864.77,1432.29c-.21-8.91-.56-18.78,9.1-22.86,8.08-3.42,19.31-4.57,28.31-2.95,6.47,1.16,8.9,8.7,8.91,14.63l.19,137.7.2,14.41c.19,13.66-11.97,31.97-21.93,41.4-7.5,7.1-15.65,11.88-24.24,16.9-9.4,5.49-19.51,6.68-30.39,6.05l-25.8-1.51-179.69.4-20.33.37c-8.67-1.24-16.5-3.35-24.13-7.82-23.59-13.8-35.96-30.72-42.61-58.18l-1.76-34.69-.32-43.71c.5-1.88,1.36-5.13,1.36-7.14l.3-157.33c.02-10.99,6.2-21.83,11.68-30.21,8.52-13.02,18.86-23.39,32.81-30.69,8.54-4.46,19.87-7.85,29.67-8.25l23.13-.94,81.75.09,62.41.91,14.24.1,18.37-1.18c15.02-.96,31.52,8.29,33.57,24.47-1.4,10.34-7.5,22.25-17.37,26.12-7.82,1.86-15.95-.53-24.23-.53l-191.12.04c-12.13,0-26,17.98-25.97,26.81l.39,114.88.56,113.94c5.39,12.95,17.3,24.46,30.64,24.35l40.19-.34,144.58-.34c24.95,5.39,56.73-3.76,57.75-27.01l.88-19.91-.08-64.68-1.01-43.3Z"/>
  <path d="M1305,1981.82l-91.82-.17-134.73,1.19c-15.43.14-28.16-8.2-30.32-24.95-.87-6.78,11.14-25.96,23.29-25.96l668.11-.04c8.25,0,12.58,2.97,17.71,8.34,9.04,9.46,9.87,21.99-.25,31.53-4.85,4.57-11.55,10.49-20.09,10.48l-431.91-.43Z"/>
  <path d="M1764.03,1448.98c-1.63,8.66-11.61,21.15-22.28,21.16l-549.47.15-15.01.99-103.79.14c-13.24-1.66-23.09-10.58-26.13-23.52,1.68-13.62,11.44-24.13,24.8-27.01l83.07.02,17.56-1.22,17.54,1.18,71.56.12,458.96.02c17.32-3.17,29.25-1.73,39.47,12.2,2.88,3.92,4.93,9.32,3.71,15.78Z"/>
  <path d="M1764.68,933.6c-.09,8.51-12.53,23.1-24.24,23.29l-662.02.05c-11.19,1.46-19.72-3.97-25.05-12.86-4.81-8.02-5-17.11,1.03-25.27,3.37-4.56,9.46-9.46,15.93-11.06h672.65c5.92,0,11.11,4.33,15.14,7.54,5.26,4.19,6.63,11.52,6.56,18.31Z"/>
  <path d="M657.28,1988.57c-15.27-15.18-32.4-29.17-19.94-43.93,5.39-6.38,11.47-13.33,20.64-14.31,7.38-.79,15.53,2.62,20.98,8.04l22.75,22.69,11.67,13.3c1.46,1.66,6.32.01,7.73-1.76l16.12-20.31,22.83-23.86,18.85-19.83,9.04-9.45,38.85-39.75,21.22-21.92c8.06-10.3,17.29-18.32,27.92-25.92,4.81-3.44,10.59-6.96,16.55-3.76,15.79,8.47,25.5,24.18,17.22,35.32-13.94,18.76-30.74,34.37-47.26,50.9l-35.63,35.67-37.99,39.11-24.08,25.15-16.42,17.41c-9.74,10.32-28.36,32.73-38.18,26.53-9.52-6.01-18.55-13.25-26.07-21.56l-10.07-11.13-16.71-16.61Z"/>
  <path d="M648.66,1467.63c-5.09-5.26-9.48-11.19-12.78-16.86-4.75-8.14-1.22-16.95,5.05-22.58,5.19-4.65,9.49-10.09,16.9-11.4,3.44-.61,9.76,1.49,12.44,3.86l22.46,19.83c12.27,10.83,16.92,23.45,23.43,22.91,3-.25,5.69-2.35,7.52-5.05,7.54-11.14,15.85-20.21,25.27-29.79l59.6-60.62,26.3-27.59,22.84-22.88,23.95-20.58c5.93-5.09,22.21,6.47,28.41,18.46,3.93,7.61,1.81,15.73-3.58,21.77l-7.71,8.65-29.31,30.25-17.07,17.1-70.7,70.51-39.86,45.53-16.61,16.98c-7.26,5.42-15.55,3.86-21.36-2.01l-21.61-21.8-33.57-34.68Z"/>
  <path d="M648.68,954.37c-5.61-5.79-10.04-11.9-13.8-18.48-6.39-11.18,9.23-27.28,23.65-32.92,5.81,1.7,12.11,3.72,16.49,8.11l30.31,30.41c2.77,2.78,4.59,5.54,8.28,6.65,3.31,1,7.8-1.1,10.27-3.99l15.69-18.34,39.63-40.93,17.01-18.21,46.81-47.67c12.07-12.29,36.08-41.06,48.18-36.49,10.19,3.86,18.21,12.91,20.68,23.9,3.07,13.72-19.09,31.73-29.61,42.35l-14.59,14.73-42.04,43.17-43.81,44.96-29.79,32.24-24.17,25.02c-6.28,6.5-17.21,8.5-24.02,1.68l-23.29-23.31-31.87-32.88Z"/>
  <path d="M1156.19,260.84l-18-5.94c-13.29-4.39-27.77-29.96-24.73-46.22-1.58-27.72,22.59-45.49,49.27-50.41,11.53,1.14,22.2,5.43,31.55,12.44,5.76,5.85,11.23,11.63,15.67,18.28,13.1,19.63,4,41.14-12.02,57.61-5.9,6.06-11.92,9.57-20.33,11.57-6.56,1.55-14.04,5.1-21.41,2.67Z"/>
</svg>