<?xml version="1.0" encoding="UTF-8"?>
<svg id="At-a-glance" xmlns="http://www.w3.org/2000/svg" viewBox="0 0 2330.21 2447.83">
  <defs>
    <style>
      .cls-1 {
        fill: #231f20;
      }

      .cls-2 {
        fill: none;
      }
    </style>
  </defs>
  <path d="M2255.47,2314.96c-27.67,22-59.21,37.35-93.71,45.49l-19.96,2.82H188.53c-16.19-1.53-30.47-5-45.14-10.58-12.58-4.79-25.14-8.57-36.29-16.53l-33.73-24.11-20.88-21.02-23.52-31.62-10.52-19.7-13.07-34.2c-3.3-8.64-4.22-19.18-4.22-29.26l-.06-1868.2c0-10.93-2.17-20.16-.39-30.71,1.78-10.57,1.08-22.25,4.81-32.46,26.47-72.64,58.87-114.05,130.96-145.01,7.09-3.04,15.52-3.72,22.89-6.02,13.75-4.3,27.38-6.64,41.71-7.47,10.4-.61,19.67-1.72,30.52.49h1057.18s15.15.43,15.15.43l116.29.34,509.65-.04,146.04-.1,39.99-.39c20.87-1.76,40.52,1.21,59.81,8.4,12.36.87,23.06,4.6,33.21,11.47,31.79,15.55,58.83,37.19,80.77,65.12,9.11,11.6,14.72,24.73,21.47,37.73,4.86,9.37,6.7,18.85,9.18,29.21l8.3,34.66,1.35,97.75.24,1799.47-1.49,14.82-8.04,32.28c-3.11,12.48-5.4,24.09-12.73,34.88l-23.94,35.23-14.05,15.02-10.95,9.67-3.55,2.14ZM1712.21,2304.05c7.74,2.59,12.65.3,18.82.32l73.36.26,29.13-.11,149.1.28,134.45.99c7.37.05,13.91,1.16,21.34.02,19.54-3,37.68-8.43,55.41-17.48,6.04-3.08,13.2-7,18.03-11.8l27.06-26.89c13.02-12.94,32.19-51.84,32.19-73.34l-.09-658.26.05-1244.18c0-11.4-13.62-41.5-21.38-55.31-13.61-24.25-33.18-43.2-57.84-56.42l-20.68-8.31c-7.46-3-16.27-7.83-25.43-7.83l-1600.17-.11-359.96-.11c-8.78,0-14.81,1.89-22.28,4.7-24.15,9.08-46.87,21.43-64.11,40.83-8.41,9.46-16.91,18.71-22.7,29.8-8.16,15.61-18.26,40.58-18.32,57.21l-.91,261.56-.9,432.52,1.49,8.48-.04,304.01c-2.03,11.01-2.07,20.56.04,31.65l-.69,373.25-.54,314.12.23,11.41.36,66.04,1.03,87.04c.25,20.76,13.4,52.23,25.01,70.77,15.01,23.97,36.09,42.74,62.6,53.13,23.48,9.21,48.47,16.47,73.68,13.62,15.57-1.76,31,1.28,46.81-1.83l1445.82-.02Z"/>
  <path d="M957.84,2085.24c-9.66-.27-18.99-9.73-20.27-17.85l.13-28.88-.12-216.58.21-45.05.15-246.71-.68-19.94.21-48.58-.55-52.45c-.11-10.11,3.05-17.99,10.77-23.81,3.17-2.39,7.31-6.35,11.95-6.38l112.3-.89,53.04-.07c18.17-.03,29.15-3.79,42.29,16.58,5.12,7.93,4.27,18.13,2.49,28.01l.12,596.5c1.59,15.69,1.87,30.19.52,45.7-1,11.51-14.74,20.32-25.25,21.09l-16.28,1.2-117.55-.44-53.47-1.47ZM1102.71,2032.05c4,0,11.51-1.1,12.81-5.17,2.82-8.83,1.63-17.19.19-26.66v-557.54c-2.74-4.14-5.75-7.48-9.18-9.89l-93.12.04c-8.12-2.82-15.63.41-21.07,6.99-.26,7.57.01,13.99,1.35,22.16v559.16c0,2.51,1.5,6.71,2.91,7.92,5.37,4.63,13.92,5.55,20.65,2.86l85.46.14Z"/>
  <path d="M821.9,2087.17l-122.02.8-34.96.35-17.03-.89c-9.18-.48-17.57-1.87-24.07-8.27-5.74-5.65-9.37-15.14-8.27-23.87l3.15-24.98.16-451.4c0-9.7.29-18.23,7.75-24.22,6.27-5.04,14.08-10.26,22.54-10.25l81.52.13,13.24-1.28,80.08-.28c11.89,3.69,21.26,11.36,26.18,22.97.4,11.07.71,21.77-.86,33.17l.39,174.55.04,186.63-.25,71.73,1.15,21.12c.92,16.97-9.73,33.86-28.74,33.98ZM714.34,2031.83l71.51.13c11.67.02,10.03-18.55,7.76-34.29l.06-385.93c0-7.12-3.08-12.75-10.65-12.14l-14.35,1.15-69.42-.05c-7.18,0-24.88-4.76-25.05,9.35l-.6,49.63-.68,59.29,1.32,7.05.09,255.81c4.22,16.29-4.12,36.05,2.36,45.05,3.41,4.75,11.7,5.99,16.89,4.77,7.22-1.69,13.23.15,20.77.16Z"/>
  <path d="M512.89,2085.86c-7.81,2.91-15.34.49-22.92.52l-72.68.35-96.68.43c-6.8.03-15.35-5.96-18.84-10.69-6.69-9.08-7.65-18.57-4.97-29.18l.1-309.37c0-9.66.72-17.28,9.38-22.99,5.72-3.77,13.64-7.29,21.67-7.3l168.62-.33c11.79-.02,21.22,3.4,28.57,12.69,5.44,6.88,8.37,14.99,5.82,24.44l.37,286.79,1.23,28.5c.53,12.16-7.99,21.79-19.67,26.14ZM451.12,2032.26c7.64.03,15.49,3.6,21.71-2.03,4.51-4.08,5.22-12.01,2.8-18l.16-137.8-.18-86.79c2.74-8.51,2.41-20.73-4.9-26.26-7.32-5.54-17.09-1.4-25.13-1.41l-68.4-.07c-6.6,0-13.61-3.46-19.59,1.97-4.69,4.26-6.18,12.46-5.16,19.2,1.5,9.99.09,19.02.21,28.89l.43,34.99.59,150.31c-1.32,10.03-3.07,20.68.21,29.94,3.1,8.76,14.44,9.79,22.21,6.8l75.05.26Z"/>
  <g>
    <path class="cls-2" d="M735.52,813.72h-54.54v-377.37c-187.32,12.05-335.53,167.8-335.53,358.16s160.69,358.91,358.91,358.91c167.04,0,307.43-114.11,347.46-268.64h-370.85v-57.74h380.84c.4-4.42.69-8.87.93-13.33h-327.23Z"/>
    <path class="cls-2" d="M1061.85,762.28c-15.39-172.86-153.33-310.46-326.33-325.34v325.34h326.33Z"/>
    <path d="M1071.19,826.7c-77.15.08-294.34-.07-370.19.01-4.81.12-10.23-.06-13.63,2.87-5.56,5.75-5.33,13.97-5.92,24.49-.09,9.22.67,18.69,3.22,24.08,3.27,7.63,12.4,6.59,19.63,6.73,64.02.03,263.59-.08,329.74.05,5.85.26,12.41.52,14.28,6.2,1.7,6.62-1.59,16.77-4.36,24.6-34.28,96.1-109.25,174.43-204.16,212.71-260.39,105.4-537.06-117.46-490.57-393.87,16.47-101.97,78.3-193.53,165.87-247.52,37.08-23.9,80.28-38.28,123.72-48.92,6.44-2.2,12.42-4.75,17.57-8.81,17.05-12.37,19.21-44.39-.67-54.38-10.08-4.83-23.49-3.21-34.7-1.09-173.74,32.83-314.37,180.2-339.28,355.25-48.38,308.36,245.97,565.08,544.33,475.62,151.25-44.09,268.49-172.76,298.37-327.61,2.25-11.61,4.06-22.55,2.01-30.72-6.55-22.56-36.81-19.25-55.12-19.7h-.14Z"/>
    <path d="M1128.89,762.04c-14.37-216.71-202.13-392.71-419.2-393.18-14.77-.22-24.57,2.57-27.38,17.1-1.92,9.18-1.48,20.25-1.54,29.77-.08,96.45.06,273.85,0,343.4,0,4.45,0,12.09,0,17.61.3,11.77-1.23,26.09,8.3,32.8,7.17,5,20.45,4.27,30.81,4.37,69.33.16,229.55-.12,326,0,13.32.04,24.74-.03,37.93,0,12.54-.31,26.49,1.14,37.04-4.29,6.94-3.73,8.83-11.38,9.06-18.94.28-9.12-.32-19.1-1-28.43l-.02-.21ZM735.94,761.82c-1.43-1.78-1.1-4.41-1.23-6.79.1-40.35-.1-117.42-.01-168.9.1-61.36-.17-114.98.09-140.42.19-3.43,1.12-6.14,4.59-7.26,3.56-1.19,9.81-.75,17.97.43,151.07,22.37,273,140.2,300.62,290.34,1.66,8.71,4.43,23.96,2.22,29.67-1.28,3.29-4.2,4-7.56,4.14-26.71.22-85.82-.03-150.42.06-49.52.08-121.05-.04-159.71-.02-2.31-.1-4.82.16-6.52-1.23l-.02-.02Z"/>
  </g>
  <g>
    <path class="cls-1" d="M1372.41,499.22h627.39c16.33,0,29.58,13.26,29.58,29.58v.87c0,16.33-13.26,29.58-29.58,29.58h-627.39c-16.33,0-29.58-13.26-29.58-29.58v-.87c0-16.33,13.26-29.58,29.58-29.58Z"/>
    <path class="cls-1" d="M1372.41,1441.39h630.05c16.33,0,29.58,13.26,29.58,29.58v.87c0,16.33-13.26,29.58-29.58,29.58h-630.05c-16.33,0-29.58-13.26-29.58-29.58v-.87c0-16.33,13.26-29.58,29.58-29.58Z"/>
    <path class="cls-1" d="M1372.41,1036.07h233.79c16.33,0,29.58,13.26,29.58,29.58v.87c0,16.33-13.26,29.58-29.58,29.58h-233.79c-16.33,0-29.58-13.26-29.58-29.58v-.87c0-16.33,13.26-29.58,29.58-29.58Z"/>
    <path class="cls-1" d="M1768.66,1036.07h233.79c16.33,0,29.58,13.26,29.58,29.58v.87c0,16.33-13.26,29.58-29.58,29.58h-233.79c-16.33,0-29.58-13.26-29.58-29.58v-.87c0-16.33,13.26-29.58,29.58-29.58Z"/>
    <path class="cls-1" d="M1855.98,824.54h-339.77c-23.74,0-42.99-13.25-42.99-29.58v-.87c0-16.34,19.25-29.58,42.99-29.58h339.77c23.74,0,42.99,13.24,42.99,29.58v.87c0,16.34-19.25,29.58-42.99,29.58Z"/>
    <path class="cls-1" d="M1372.41,1707.07h630.05c16.33,0,29.58,13.26,29.58,29.58v.87c0,16.33-13.26,29.58-29.58,29.58h-630.05c-16.33,0-29.58-13.26-29.58-29.58v-.87c0-16.33,13.26-29.58,29.58-29.58Z"/>
    <path class="cls-1" d="M1372.41,1971.62h630.05c16.33,0,29.58,13.26,29.58,29.58v.87c0,16.33-13.26,29.58-29.58,29.58h-630.05c-16.33,0-29.58-13.26-29.58-29.58v-.87c0-16.33,13.26-29.58,29.58-29.58Z"/>
  </g>
</svg>