<?xml version="1.0" encoding="UTF-8"?>
<svg id="Behavior_Plan" data-name="Behavior Plan" xmlns="http://www.w3.org/2000/svg" viewBox="0 0 2330.21 2447.83">
  <path d="M373.68,2272.15l-.91-159.57.19-371.53-.32-349.81-.25-465.96-.02-143.55.42-311.87c.01-8.62,1.57-15.36,3.29-23.35,12.01-55.57,49.7-102.61,104.25-120.13,22.13-7.11,43.62-9.33,66.4-8.77l51.41,1.27,159.71.93c22.94.13.19-36.3,19.5-73.08,9.5-18.09,24.63-33.56,43.55-42.08,15.19-6.85,32.74-5.71,49.18-5.89l46.18-.51c12.25-.13,22.67-.98,35.39.36,6.17.65,13.78-.2,18.69-3.7,4.1-2.92,5.1-10.16,6.89-16.51,8.04-28.53,19.62-56.96,38.82-79.7,23-27.23,51.04-49.46,84.35-60.79,28.21-9.59,56.53-15.35,85.65-11.86,45.96,5.5,87.28,26.19,117.63,60.5,23.81,26.92,41.06,57.6,47.83,93.15,1.34,7.03,1.29,16.72,11.63,16.91l64.43,1.19,36.3.26c42.15-3.36,79.1,21.09,90.73,62.91,7.7,27.7-6.72,58.61,11.23,58.65l250.17.48c13.46.03,29.06,5.19,40.84,9.5,40.41,14.78,71.69,42.97,85.58,83.95,4.93,14.54,13.34,31.86,13.47,47.72l1.68,204.52.29,1591.47c0,13.47-1.5,22.48-4.55,34.12-10.27,39.23-31.78,73.3-64.72,96.1-31.19,21.6-63.6,30.02-101.63,30.02l-1221.73.03c-22.25,0-41.88,2.52-62.87-2.88-55.01-14.14-100.99-52.44-119.9-106.53-3.56-10.18-8.7-24.42-8.76-35.99ZM1217.89,451.19l252.86.65c16.27.04,38.74-5.65,38.86-26.75l.72-126.86c6.68-22.95-4.3-46.36-26.27-55.07l-158.72.71c-10.34-7.74-12.63-20.76-14.47-32.93-5.64-37.4-19.82-73.22-48.26-98.28-15.86-13.97-33.32-26.56-53.55-32.01-33.18-8.94-55.41-8.46-88.84-.44-16.19,3.88-29.87,14.92-43.54,23.85-9.02,5.89-15.77,13.3-22.34,21.66-22.06,28.08-36.18,58.95-38.98,95.26-.58,7.57-6.32,19.23-13.4,22l-155.27.96c-13.27,3.53-24.34,16.62-31.64,27.89l.19,159.66c6.79,8.79,16.53,20.31,28.73,20.28l254.77-.6h119.15ZM1906.34,2271.42V459.07c-12.02-50.82-56.75-92.65-109.94-92.37l-161.98.87-67.24.73c-18.74.2-6.34,34.04-11.09,65.89-4.88,32.74-30.04,53.77-60.65,66.05l-659.82.21-25.52-10.47c-28.16-14.14-43.3-44.43-41.41-75.23l2.19-35.6c.17-2.75-1.03-9.21-3.34-10.44-1.93-1.03-6.47-1.17-9.42-1.19l-33.31-.16h-69.86c-46.75.02-91.55,1.38-138.47-.11-35.06,6.98-65.97,27.62-82.33,59.9-4.47,8.81-8.11,18.57-11.35,28.12-3.58,10.53-1.48,22.52-1.49,34.32l-.49,335.64.22,98.19.23,935.9-.21,44.79.27,342.55c.02,29.57,10.7,64.16,31.48,83.41,17.91,20.55,40.86,33.92,68.35,39.23l237.13.03,939.76-.34,113.84-.38c48.03-11.07,85.95-44.87,94.46-97.18Z"/>
  <path d="M1224.58,1491.73c-18.74,11.78-35.03,22.01-55.48,30.13-43.78-14.27-108.64-55.1-145.58-83.55l-52.32-40.29-46.28-44.02c-25.77-24.51-46.06-51.74-66.79-80.5-55.49-77.02-94.82-184.24-94.87-278.71l-.11-200.79c0-13.97,15.36-28.45,28.59-30.56,36.61-5.84,71.45-10.08,107.42-18.58l30.58-7.23c42.24-12.88,81.66-30.35,121.07-49.95,30.79-15.31,58.06-32.98,86.17-52.56,8.45-5.89,17.65-13.54,28.28-14.85,7.42-.92,18.31,7.03,24.59,11.1l56.36,36.57c55.96,36.31,116.71,60.22,181.75,75.23l55.14,12.72,49.91,6.33c11.34,1.44,31.42,11.85,32.55,26.27l.57,219.85c.12,44.33-18.28,116.42-35.25,158.94-7.75,19.42-14.55,37.95-26.19,55.59l-48.85,74.01-23.7,29.56c-27.85,34.74-61.84,62.3-95.81,90.88l-39.5,28.99-72.24,45.42ZM1176.61,1465.71l38.93-24.08c41.41-25.61,82.25-50.8,117.94-84.03l29.77-27.72c32.17-29.96,81.57-94.38,100.71-134.68,15.33-32.27,31.87-63.27,39.18-98.67l12.31-59.67c3.57-35.19,1.35-69.6,1.92-104.86l1.74-108.32c.16-9.85-2.94-17.78-14.27-18.47-42.23-2.59-83.08-10.82-123.46-23.44l-25.68-8.02c-63.09-22.37-122.76-51.36-175.88-92.25-3.8-2.92-8.34-7.84-12.36-8.41-3.45-.49-9.21,3.68-12.67,6.23l-20.46,15.13c-46.12,28.52-93.19,54.62-144.32,73.02l-27.16,9.77-41.46,11.84-39.31,9.2-61.61,8.92c-7.66,1.11-9.85,7.29-9.83,14.32l.51,182.5c.11,39.38,11.28,74.72,22.31,111.83,17.17,57.76,48.06,107.57,84.18,155.25,26.68,35.21,54.5,66,89.18,93.62,31.23,24.86,62.12,47.89,96.5,68.25l54.07,32.02c5.63,3.34,12.62,4.8,19.22.72Z"/>
  <path d="M632.22,1954.36c-15.89,0-24.08-10.65-27.23-22.62-2.33-8.87,5.42-28.52,19.18-28.52l492.25.02,332.18.03,240.95-.72c9.31-.03,17.55-1.32,25.15,4.6,5.58,4.35,12.87,13.33,10.79,23.16-1.8,8.53-12.97,23.79-24.45,23.79l-1068.83.27Z"/>
  <path d="M736.25,1717.27l-112.3-.6c-12.46-.07-22.41-16.07-19.33-27.74,2.18-8.28,10.89-21.07,21.84-21.06l898.84.12,174.28-.98c14.67-.08,29.29,15.43,26.62,28.64-3.99,19.68-17.93,21.67-33.78,21.67l-641.7-.1-314.46.04Z"/>
  <path d="M786.87,2177.42l-77.34.76-48.4.02-30.76.28c-11.93.11-22.59-11.12-25.7-22.67-1.65-6.14,1.96-15.96,5.77-19.87,5.89-6.05,12.88-7.82,22.65-7.82l810.61.05c7.7,0,14.72,5.26,17.41,9.54,3.43,5.45,4.95,15.64,2.2,22.73-2.54,6.55-11.66,17.85-18.98,17.8l-96.1-.71-561.36-.11Z"/>
  <path d="M1212.03,191.57c14.15,34.81-22.82,72.55-49.47,69.01-16.99-2.26-32.88-14.41-40.44-29.25-11.49-22.56-4.15-47.19,14.92-62.84,12.26-10.06,28.53-11.83,45.49-6.68,11.86,3.61,23.8,15.74,29.5,29.76Z"/>
  <path d="M1263.61,1187.51c-26.27,26.36-53.37,48.87-81.86,70.83-9.31,7.18-20.36,6.83-29.61.63-23.74-15.93-43.29-35.22-64.27-54.44l-47.16-43.2-33.33-32.87c-37.73-37.21-49.33-94.92-36.57-146.05,16.19-40.18,47.91-65.61,90.86-73.53,33.85-6.24,70.9,7.62,95.27,32.51,3.6,3.67,9.11,8.3,13.77,7.38,19.82-23.92,46.82-38.87,77.69-39.47,18.69-.37,36.08.78,52.34,9.47,14.93,7.99,29.88,16.87,39.96,30.19,42.96,56.77,31.58,129.49-17.22,178.47l-59.87,60.08ZM1274.07,1114.67c16.37-15.44,27.16-33.4,37.11-52.12,13.8-25.96,13.3-55.52-3.99-80.53-9.48-13.72-27.49-26.78-45.32-27.86-33.12-2-60.27,18.95-77.51,44.77-5.74,8.59-18.7,15.93-26.51,8.22l-40.85-40.3c-23.78-20.39-54.33-19.41-78.67-.93-13.38,10.16-23.75,25.05-26.64,43.13-1.5,9.39-2.44,24.46.63,33.55,11.56,34.29,33.57,61.3,59.61,85.27l66.41,61.14,21.79,20.33c3.9,3.64,8.81,4.79,12.79,1l37.37-35.54,63.79-60.13Z"/>
</svg>