<?xml version="1.0" encoding="UTF-8"?>
<svg id="Goal_Summary" data-name="Goal Summary" xmlns="http://www.w3.org/2000/svg" viewBox="0 0 2330.21 2447.83">
  <path d="M1042.77,2446.98l-55.95.85-6.59-2.49c-26.49,1.45-51.02-.66-76.75-6.57-48.94-6.25-95.83-15.94-141.94-33.25l-67.53-25.35c-64.13-28.25-124.12-62.96-179.14-105.97l-70.57-62.54-15.67-15.84c-32.75-33.12-62.66-66.18-89.44-104.33-25.61-36.48-47.69-72.68-66.83-113.07l-10.98-23.16c-23.81-50.25-43.36-100.49-55.89-155.34-15.07-65.93-22.69-132.29-23.79-199.57l2.59-38.36c4.55-67.22,16.93-132.2,36.81-196.41l9.15-29.56c12.52-40.43,29.97-77.32,49.07-115.04,19.42-38.37,40.89-72.65,65.91-107.41,16.55-22.99,32.53-44.59,51.96-65.47,23.98-25.78,46.85-51.8,73.95-74.33l47.97-39.88c122.84-93.66,265.6-149.46,419.31-166.23,37.36-4.08,73.12-7.01,110.88-4.7,5.74.35,16.58,3.09,20.51.01,5.82-4.56,2.54-13.2,2.57-18.74l.84-129.41v-78.46s-.06-83.83-.06-83.83c-.03-47.59.03-94.24.06-141.81l.03-55.41.09-99.26,1.21-39.62c.31-10.14-4.37-14.37-11.74-20.23-15.32-12.18-21.98-34.1-18.01-54.25,6.16-31.3,40.38-50.8,70.51-37.98,19.5,8.29,35.82,32.87,30.37,53.21l-5.69,21.24c8.9,5.74,14.91-1.35,22.24-3,60.77-13.66,123.22-17.16,185.45-9.4,14.38,1.79,29.17,6.85,42.58,11.39l32.23,10.91c36.21,12.26,70.59,27.75,109.55,31.26,60.62,5.46,120.37-1.55,179.43-16.37l43.35-10.88c10.25-2.57,18.71-6.33,27.57,1.49,5.68,5.02,14.36,14.34,9.49,24.33l-52.32,107.32-35.69,65.49c-5.17,9.48-7.24,11.87-1.24,21.41l84.09,133.77c4.48,7.13,9.37,18.95,6.48,25.82-7.25,17.26-23.97,22.16-39.86,26.38l-43.22,11.47c-92.73,24.62-185.66,28.38-275.27-9.02-37.48-15.64-73.86-31.51-115.22-35.28-55.52-5.06-95.56-1.21-147.79,14.15l-39.45,11.6c-10.1,2.97-10.48,9.81-10.5,19.16l-.47,240.11c0,4.66-1.03,11.63.85,14.56s8.91,4.7,13.28,5.38c40.35,6.33,79.1,14.77,117.94,26.5l22.97,6.93,54.45,19.4c43.5,15.5,82.45,38.02,122.3,62.35,55.49,33.89,105.93,74.15,152.42,119.23l41.93,46.33c2.89,3.2,7.14,7.95,10.9,7.94,3.32-.01,8.32-4.81,11.38-7.37l35.83-29.91c3.56-2.97,9.92-9.32,10.07-13.99,1.27-38.65,3.13-74.67,9.65-112.18l4.33-59.49c.62-8.53,7.77-19.27,14.7-25.07l85.79-71.74,87.13-72.61c6.84-5.7,14.9-13.07,23.52-15.16,9.16-2.22,18.2,5.45,21.84,11.13,5.55,8.67,3.79,15.63,3.58,25.55l-1.81,83.87-.27,53.3c11.87,5.85,20.79,11.7,30.1,18.82l82.14,13.75,48.6,6.27c8.97,1.16,16.48,6.39,20.21,12.84,10.97,19.03-7.58,34.24-28.37,50.08l-86.8,66.13-90.62,69.11c-7.06,5.38-17.09,5.51-25.75,5l-79.9-4.73-62.94-6.91c-7.1-.78-20.51-3.29-26.19.12l-43.24,33.97c-7.76,6.09-10.47,13.79-4.68,22.5l45.84,68.85,27.56,53.59c33.62,65.38,56.55,133.01,70.73,205.74l11.95,86.63,2.89,83.43c2.24,64.52-9.34,143.99-28.04,205.89l-13.17,43.59c-24.92,74.21-56.89,144.53-101.07,209.23l-61.11,83.13-79.8,80.07c-36.79,33.79-75.03,63.75-118.32,88.71-38.25,22.04-74.4,44.43-115.7,59.75l-54.18,20.11-29.34,9.38c-55.91,17.88-113.25,28.44-172,34.22l-40.22,2.18ZM1727.86,455.75c7.27-3.06.44-18.38-5.04-19.76l-56.61-96.72c-25.27-34.99-15.6-43.84.28-75.79l28.57-57.48,23.98-45.02c.89-1.67,1.78-7.29,1.04-8.88s-4.02-2.71-6.18-3.14c-10.37,6.26-22.64,9.87-34.85,12.15-21.34,3.98-41.39,8.4-63.02,8.94-29.2.72-57.75,1.48-87.04-.9-35.73-2.9-67.75-16.35-100.99-27.79l-43.66-15.03c-59.98-20.65-133.6-19.67-195.33-5.54l-37.46,8.57c-9.33,2.14-20.08,6.42-28.86,10.77-6,4.43-1.23,15.6-1.23,21.99l.08,266.1c0,4.75-1.77,11.81,1.34,14.18,2.57,1.96,9.57,2.42,12.54.94,27.66-13.79,55.8-18.31,85.87-22.97,43.97-6.82,86.37-7.01,130.41,1.48,24.33,4.7,46.42,14.08,69.86,22.39l57.96,20.54c72.87,19.67,121.11,20.18,194.91,4.27,17.8-3.84,36.4-6.09,53.45-13.27ZM1764.82,969.7c9.84-.43,12.82-2.13,17.41-5.81l20.24-16.22,108.54-88.58c10.32-8.42,8.2-16.48,8.2-28.02v-78.66s.66-12.29.66-12.29c.12-2.27-5.86-4.65-8.56-4.76l-20.8,19.08-28.26,23.93-38.48,28.84-27.64,22.4c-7.67,6.22-19.89,14.06-20.77,25.33l-7.37,94.34-3.17,20.4ZM1652.44,1136.84c-3.32-3.56-10.99,3.23-13.59,5.38l-48.06,39.65-37.07,32.74-67.22,52.57c1.7,6.78,7.19,10.4,10.4,15.71l27.95,46.3c18.17,36.05,34.08,72.19,46.23,111.08,32.87,105.21,32.91,215.34,3.21,320.68l-10.13,31.21c-21.01,57.11-46.01,112.96-85.27,159.64l-40.24,47.84c-16.06,19.1-34.88,33.68-54.01,49.66-37.56,31.34-76.66,57.91-121.23,78.99l-58.16,22.58-24.81,7.35c-69.51,20.61-141.3,29.01-213.9,21.57l-72.31-10.72-58.19-16.26c-43.83-15.04-86.41-33.49-124.47-59.7l-46.81-32.24c-27.28-18.79-48.05-44.39-71.38-68l-43.59-53.36c-15.72-19.24-27.93-40.27-38.03-63.24l-36.34-82.65c-12.2-27.75-20.2-56.62-23.8-86.46l-6.74-55.95c-2.94-24.42-2.04-49.33.25-73.56l4.1-43.44,6.5-49.45c3.07-23.33,11.7-45.7,19.72-68.17,9.38-26.26,21.7-50.65,34.24-75.86,19.57-39.33,42.37-75.38,71.9-108.01,20.54-22.7,39.98-45.52,64.15-64.09l48.51-37.28c46.7-32.66,97.61-59.07,152.62-74.21l32.16-8.85c55.29-15.22,112.33-20.2,169.6-17.48,8.6.41,17.25,4.43,25.61-1.92l-1.09-53.79-1.07-158.18c-5.77-5.7-14.92-4.17-22.42-4.42-89.57-3.02-162.07,10.29-247.72,33.31-20.61,5.54-40.32,12.66-60.16,20.83l-49.72,20.47c-53.78,24.39-103.81,55.26-149.54,92.47l-37.53,30.54c-22.35,21.13-44.84,41.53-65.29,64.97-74.04,84.85-137.47,192.68-169.33,300.66l-8.87,30.06c-8.24,27.92-14.6,55.62-17.96,84.87l-7.11,62.01c-4.33,37.71-2.61,75.5,0,113.24,3.01,43.7,10.19,85.06,21.39,126.96l7.68,28.73,24.11,70.23c25.42,59.67,53.64,116.61,90.93,169.47,17.49,24.79,34.2,47.31,54.93,69.4,32.83,35,66.39,67.91,103.33,98.78l69.1,48.13c36.25,25.24,74.71,43.91,116.11,59.34l66.98,24.96,29.69,8.86c53.01,13.6,106.3,24.92,161.35,24.71l96.57-.37,65.83-7.42,42.54-9.29,43.7-12.32,38.65-11.8c75.89-26.28,145.83-62.76,210.19-111.1,45.62-34.26,89.54-68.77,124.67-113.66l61.23-78.25,33.2-54.97c31.84-58.46,60.13-117.33,76.75-181.89l9.34-36.28c17.79-69.11,25.03-147.42,20.01-218.39l-2.85-40.25-12.99-79.1-7.94-34.71-32.67-95.47c-14.66-42.85-65.41-140.69-95.88-173.35ZM1502.78,1186.14l43.43-35.23,63.58-51.31c2.59-2.09,5.3-7.12,5.34-9.81.04-2.25-2.36-6.61-4.47-8.88-55.66-59.99-117.9-113.09-189.09-154.39-57.24-33.21-115.41-60.5-178.08-80.62l-32.25-8.58-64.57-14.55c-7.75-1.75-16.02-2-24.5-.8l-.56,196.4c-.01,4.24-2.07,11.72-.07,14.73,1.67,2.53,7.08,5.73,10.34,6.59l55.5,14.53c63.25,16.57,122.59,46.36,174.33,86.74l60.42,52.36,27.84,28.26c5.76,5.85,12.21-.49,16.39-4.09l36.42-31.36ZM1976.43,974.61l44.49-30.94,34.34-26.68c3.67-2.85,6.9-13.16,2.4-13.71l-38.68-4.76-52.07-8.81c-9.44-1.6-17.91-.26-25.21,6.5-26.45,24.47-53.79,46.25-83.2,67.24-16.52,15.47-32.01,29.1-51.13,41.32l-.82,7.46c-.14,1.31,4.74,1.91,6.03,1.92l86.36,3.15c11.24,4.27,20.58.39,29.56-6.41l47.93-36.29ZM1326.09,1572.09c3.46,19.14,5.66,38.34,2.24,56.71l-12.03,64.69c-7.88,27.73-21.65,53.25-35.97,77.95-19.63,33.85-45.5,60.57-77.2,82.97-28.9,20.42-58.47,37.81-92.93,46.92-61.79,16.33-105.33,18.33-167.81,4.14-42.28-9.6-78.43-27.96-112.26-54.93-45.63-36.39-82.49-80.68-102.84-135.98-17.33-47.09-26.63-113.9-14.63-161.5l10.83-42.97,17.94-40.93c41.02-79.36,112.3-141.54,199.96-160.31,22.09-4.73,43.16-9.45,65.45-10.58,30.17-1.53,58.47,5.12,88.02,10.34,20.64,3.65,39.52,11.89,58.93,20.11,30.73,13.02,57.93,32.19,81.1,56.29,4.65,4.83,11.41,8.02,17.41,2.81l37.19-32.3,36.75-28.65,76.89-60.2c4.5-3.52,9.51-4.67,11.5-11.62-43.49-46.19-92.11-85.83-148.91-114.19-35.78-17.86-70.53-35.12-109.24-43.43l-53.78-11.55-73.28-7.75c-33.23-1.48-66.63,1.3-98.69,8.84l-55.01,12.93-65.77,23.55c-24.2,8.67-44.15,22.11-65.9,35.36-58.57,35.68-106.65,81.08-147.41,136.16-84.12,113.66-125.99,273.98-92.87,411.6l12.19,50.67c6.82,28.33,18.77,52.72,31.85,78.81,44.6,88.97,111.06,162.74,195.96,215.83,66.71,41.72,141.37,69.47,220.08,78.53,39.91,4.59,78.95,2.25,118.12-1.33l66.87-13.67,46.57-14.74c50.32-19.49,97.45-42.15,140-76.15,41.87-33.45,78.55-71.32,110.11-114.39,19.14-26.12,33.47-52.38,47.83-80.87s27.51-59.92,35.04-92.83l7.62-33.27c12.56-66.01,11.92-134.16-.27-200.09l-10.5-42.03c-15.74-53.53-38.91-102.59-67.72-150.08-3.11-5.13-5.38-9.43-9.91-14.21l-66.87,53.25-23.67,19.07-53.37,40.82-21.19,17.69c-2.24,1.87-6.46,6.17-5.95,8.74,1.12,5.68,24.69,31.68,38.62,75.48l10.91,60.29ZM1230.82,1467.8l-52.07,42.37-18.32,15.67-68.73,52.61c-17.61,13.48,3.66,40.75-21.9,67.8-26.65,28.21-70.05,30.29-95.07,6.28-14.41-13.83-21.29-34.04-17.01-55.53,5.95-29.89,33.56-53.03,64.43-53.06l23.55,4.83c5.27,1.08,13.73-7.9,17.92-11.53l27.91-24.17,42.95-33.44,59.13-44.56c3.36-2.53,7.44-6.67,7.44-9.74,0-2.64-3.04-8.46-5.41-10.27-38.28-29.13-80.21-52.83-128.38-61.89-35.15-6.61-71.61-6.55-106.41.69-18.38,3.82-35.67,11.69-52.99,18.83-38.47,15.86-69.75,43.15-95,75.25-24.34,30.95-39.94,63.4-47.42,101.85-14.99,77.06-4.99,140.93,41.5,204.64,17.16,23.52,35,44.01,59.7,59.86,26.95,17.29,53.58,35.37,85.53,41.9l37.47,7.66c15.11,3.09,33.13,3.03,48.45.24l52.99-9.62c35.69-11.41,68.58-27.24,96.07-52.13,44.95-40.71,74.01-85.33,86.5-144.94,5.91-28.22,4.63-56.18,3.51-84.91-.49-12.49-3.88-23.61-7.44-35.13-8.03-26.02-25.68-80.29-38.89-69.54Z"/>
</svg>