<?xml version="1.0" encoding="UTF-8"?>
<svg id="Observation_Sheet" data-name="Observation Sheet" xmlns="http://www.w3.org/2000/svg" viewBox="0 0 2330.21 2447.83">
  <defs>
    <style>
      .cls-1 {
        fill: #231f20;
      }
    </style>
  </defs>
  <path class="cls-1" d="M2163.23,1224.59c17.89,3.75,36.38,10.8,49.37,21.82l69.9,59.32c25.1,21.3,42.99,51.29,47,84.48,3.31,27.45-5.11,56.71-22.16,77.15l-28.96,34.73-70.28,83.15-78.56,94.31-95.74,115.97-50.53,61.78-52,62.09-17.27,19.4-49.9,62.18-39.46,48.11-19.26,22.33-73.51,89.38-52.83,65.95c-11.73,14.65-24.8,17.5-40.63,24.04l-108.04,44.59-89.14,40-65.5,25.82-1219.1.09c-51.67-8.39-92.09-37.79-123.08-77.88C9.81,2252.7-.06,2217.28,0,2177.49l.41-277.7.02-859.11.29-778.42c.03-67.79,51.25-140.25,113.01-162.33,28.47-10.18,57.32-16.16,87.1-12.15l173.55-.76,147.07.65,79.39-.58,94.82.03,194.73-.05h85.3s166.52.1,166.52.1l81.39-.04,142.94,1.06c35.1.26,57.53,28.17,78.71,50.63l62.71,66.5,109.77,111.79,131.25,136.18,31.59,32.09c12.44,12.64,26.35,25.08,34.03,41.23,6.73,14.15,3.67,29.35,3.66,45.06l-.36,505.36-.14,328.58.05,114.98-1.65,21.23c-.1,1.29,3.53,5.28,4.83,5.08,1.29-.21,4.71-1.84,5.73-3.04l20.78-24.55,55.11-66.81,50.87-61.18,44.59-52.73c43.6-51.57,93.16-129.12,165.15-114.03ZM1442.13,2007.46l75.54-90.09,69.69-85.9,27.23-31.11,33.04-40.28,91.2-110.85,19.66-21.07c10.83-11.6,8.54-21.51,8.06-35.01l-2.18-62,.15-309.11.77-623.04.26-28.74c.02-2.4-1.05-8.25-2.59-10.07-1.55-1.82-6.72-2.43-9.64-2.45l-32.06-.28-117.47.16-119.17-.05-31.23.67c-49.61-5.86-96.43-47.39-100.18-99.41-3.25-45.11-.04-88.54-.11-132.92l-.1-65.56-.34-95.9c-.03-9.13,2.88-21.1-6.26-26.42l-14.09,1.44-102.27,1.28-49.14,1.09-31.52-1.49-489.51.58-90.98.28-206.81-.03-37.83-.44-145.31-.13c-64.15-.06-114.18,45.76-124.63,110.27l-.05,692.45-.03,929.63.35,238.89.78,79.95c.18,18.9,6.91,35.38,15.56,52.18,11.9,23.12,33.08,39.3,55.88,50.89,19.83,10.08,39.34,10.21,61.18,10.39l101.41.84,1037.4.7c8.14,0,19.12,3.65,22.58-4.29l19.83-67.63,25.6-86.42,9.7-32.08,15.2-55.25c5.38-19.55,9.28-37.99,22.42-53.66ZM1711.98,510.14c4.87.03,11.24.79,12.29-1.83,1.04-2.62-1.74-9.21-4.04-11.42l-47.25-45.47-120.27-122.67-30.54-33.4-84.31-85.94-22.93-26.82c-1.38-1.61-8.98-2.41-9.81-.59-.83,1.83-1.39,6.05-1.17,8.35l2.87,30.2.43,107.18-.28,127.54c-.03,14.32,13.41,26.18,21.85,35.6,9.74,10.87,20.32,15.7,35.15,16.48l31.72,1.66,216.28,1.12ZM2183.86,1528.06c8.77.03,11.67-6.18,16.37-11.72l61.09-72.1c20.92-24.68,21.59-57.5,1.9-83.03-26.44-34.27-57.95-62.8-96.81-83.01-9.64-5.01-25.66-5.43-35.41-1.57-24.48,9.71-39.95,29.13-56.18,48.62l-36.55,43.86c-3.55,4.26-7.41,9.16-7.56,13.17-.16,4.18,8.15,7.55,11.33,10.42l99.83,90c15.53,14,28.3,27.35,42.01,45.36ZM1659.74,2168.02l41.91-52.01,78.14-94.69,72.59-88.14,51.79-62.67,45.56-56.66,44.4-53.15,79.22-95.84,47.68-56.91,24.27-27.45c2.86-3.24,7.23-10.32,6.4-14.06-.74-3.32-6.9-7.69-9.86-10.57l-71.56-69.48-37.84-35.17-27.98-26.07c-4.4-4.1-9.98-3.82-13.82.61l-21.62,25-45.67,56.65-56.74,67.63-49.09,60.15-45.73,56.8-65.27,78.29-55.39,66.55-76.02,91.58-57.91,68.91-24.32,27.9c-1.09,6.77,8.9,12.75,13.68,17.2l73.25,68.14,34.46,31.41,27.16,31.27c5.16,5.94,13.91.24,18.29-5.2ZM1463.13,2270.74l127.88-58.63c3.35-1.54,8.42-3.3,10.54-4.86,8.72-6.43-37.63-34.92-52.68-56.11l-73.22-72.74-7.57-2.64c-1.72-.6-4.16,4.55-4.61,6.32l-19.81,76.66-11.06,43.26-10.6,35.62-9.18,33.13c-5.21,18.81,23.35,12.35,50.32-.02Z"/>
  <path class="cls-1" d="M1508.31,1364.14c12.31,0,20.54-3.84,29.56,2.75,5.84,4.26,15.04,14.24,13.09,23.82-2.6,12.82-14.72,27.2-29.39,27.2h-739.16s-221.63.24-221.63.24c-13.47.01-23.11-13.49-25-23.42-2.58-13.53,6.79-25.64,19.73-30.73,12.66-4.97,25.9.15,39.52.17l325.47.47c19.7-5.48,36.75-.52,56.83-.52l530.96.02Z"/>
  <path class="cls-1" d="M669.38,1980.42l-102.6,1.69c-15.1.25-30.84-11.36-30.54-28.26.23-12.95,12.21-24.7,23.88-27.43l73.91-.22,536.2-.35,98.28-.37c13.68-.05,27.08,16.56,24.83,30.83-1.71,10.85-14.61,24.23-27.4,24.22l-596.55-.12Z"/>
  <path class="cls-1" d="M1262.21,1700.61l-521.21.22-184.2-1.31c-14.56-.1-23.18-21.52-20.9-31.32,4.18-14.33,16.11-24.46,32.38-21.51l690.6.04c12.45,0,19.9,3.37,25.67,13.05,5.41,9.07,4.23,19.23-2.96,29.12-3.67,5.04-9.87,11.7-19.38,11.71Z"/>
  <path class="cls-1" d="M397.75,2006.29c-28.49,31.67-73.87,35.04-104.68,8.38-30.9-26.74-35.67-68.12-10.89-100.74,12.8-16.84,32.22-28.93,51.18-31.02,23.99-2.65,44.47,6.24,61.19,22.52,28.22,27.49,30.05,71.02,3.2,100.87ZM357.15,1973.76c10.98-10.68,11.65-22.69,2.53-34-3.44-4.27-11.98-13.1-18.19-11.6-10.74,2.59-21.21,11.78-25.77,21.61-5.5,11.85,11.19,32.67,24.59,33.59,5.13.35,12.22-5.11,16.85-9.61Z"/>
  <path class="cls-1" d="M396.75,1718.14c-21.96,24-53.26,35.31-83,22.36-32.46-14.13-50.86-47.17-45.04-82.01,5.26-31.51,33-59.57,67.72-61.34,38.51-1.96,73.04,26.36,79.08,63.2,3.73,22.74-3.77,41.4-18.75,57.79ZM337.38,1696.91c14.25,1.12,26.12-11.57,28.14-23.41,2.34-13.73-11.47-31.52-25.74-29.54-10.18,1.41-25.05,14.95-26.21,25.19-1.23,10.84,12.98,26.91,23.82,27.76Z"/>
  <path class="cls-1" d="M413.44,1410.01c-12.45,47.1-74.01,70.44-107.26,45.93-18.19-13.41-34.48-31.26-37.28-52.97-5.98-46.44,31.78-88.47,79.85-84,43.22,4.02,75.87,48.76,64.69,91.04ZM365.93,1390.22c-1.23-9.46-15.01-27.89-28-25.8-5.66.91-11.85,7.19-15.57,12.4-7.77,10.87-9.89,19.03-.69,29.94,3.78,4.48,10.85,9.79,16.74,10.56,12.35,1.61,28.99-15.8,27.53-27.09Z"/>
  <path class="cls-1" d="M1597.24,585.69v70.34c0,13.47-11.03,24.5-24.5,24.5h-260.32c-13.48,0-24.5-11.03-24.5-24.5v-106.87c0-13.48,11.02-24.5,24.5-24.5h21.29c-8.45-15.92-13.26-34.05-13.26-53.24v-19.33h-3.54c-13.48,0-24.5-11.03-24.5-24.5v-106.87c0-13.48,11.02-24.5,24.5-24.5h3.54v-59.38H250.1c-44.9,0-81.64,36.74-81.64,81.64v796.65c0,44.9,36.74,81.64,81.64,81.64h1321.15c44.9,0,81.64-36.74,81.64-81.64v-529.45h-55.65ZM535.37,1112.91c0,13.47-11.03,24.5-24.5,24.5H250.56c-13.48,0-24.5-11.03-24.5-24.5v-106.87c0-13.48,11.03-24.5,24.5-24.5h260.32c13.48,0,24.5,11.03,24.5,24.5v106.87ZM535.37,884.47c0,13.48-11.03,24.5-24.5,24.5H250.56c-13.48,0-24.5-11.03-24.5-24.5v-106.87c0-13.48,11.03-24.5,24.5-24.5h260.32c13.48,0,24.5,11.03,24.5,24.5v106.87ZM539.87,656.03c0,13.47-11.03,24.5-24.5,24.5H255.05c-13.48,0-24.5-11.03-24.5-24.5v-106.87c0-13.48,11.03-24.5,24.5-24.5h260.32c13.48,0,24.5,11.03,24.5,24.5v106.87ZM539.87,427.6c0,13.48-11.03,24.5-24.5,24.5H255.05c-13.48,0-24.5-11.03-24.5-24.5v-106.87c0-13.48,11.03-24.5,24.5-24.5h260.32c13.48,0,24.5,11.03,24.5,24.5v106.87ZM889.33,1112.91c0,13.47-11.03,24.5-24.5,24.5h-260.32c-13.48,0-24.5-11.03-24.5-24.5v-106.87c0-13.48,11.03-24.5,24.5-24.5h260.32c13.48,0,24.5,11.03,24.5,24.5v106.87ZM889.33,884.47c0,13.48-11.03,24.5-24.5,24.5h-260.32c-13.48,0-24.5-11.03-24.5-24.5v-106.87c0-13.48,11.03-24.5,24.5-24.5h260.32c13.48,0,24.5,11.03,24.5,24.5v106.87ZM893.83,656.03c0,13.47-11.03,24.5-24.5,24.5h-260.32c-13.48,0-24.5-11.03-24.5-24.5v-106.87c0-13.48,11.03-24.5,24.5-24.5h260.32c13.48,0,24.5,11.03,24.5,24.5v106.87ZM893.83,427.6c0,13.48-11.03,24.5-24.5,24.5h-260.32c-13.48,0-24.5-11.03-24.5-24.5v-106.87c0-13.48,11.03-24.5,24.5-24.5h260.32c13.48,0,24.5,11.03,24.5,24.5v106.87ZM1243.28,1112.91c0,13.47-11.02,24.5-24.5,24.5h-260.32c-13.47,0-24.5-11.03-24.5-24.5v-106.87c0-13.48,11.03-24.5,24.5-24.5h260.32c13.48,0,24.5,11.03,24.5,24.5v106.87ZM1243.28,884.47c0,13.48-11.02,24.5-24.5,24.5h-260.32c-13.47,0-24.5-11.03-24.5-24.5v-106.87c0-13.48,11.03-24.5,24.5-24.5h260.32c13.48,0,24.5,11.03,24.5,24.5v106.87ZM1243.28,656.03c0,13.47-11.02,24.5-24.5,24.5h-260.32c-13.47,0-24.5-11.03-24.5-24.5v-106.87c0-13.48,11.03-24.5,24.5-24.5h260.32c13.48,0,24.5,11.03,24.5,24.5v106.87ZM1247.78,427.6c0,13.48-11.03,24.5-24.5,24.5h-260.32c-13.47,0-24.5-11.03-24.5-24.5v-106.87c0-13.48,11.03-24.5,24.5-24.5h260.32c13.48,0,24.5,11.03,24.5,24.5v106.87ZM1597.24,1112.91c0,13.47-11.03,24.5-24.5,24.5h-260.32c-13.48,0-24.5-11.03-24.5-24.5v-106.87c0-13.48,11.02-24.5,24.5-24.5h260.32c13.47,0,24.5,11.03,24.5,24.5v106.87ZM1597.24,884.47c0,13.48-11.03,24.5-24.5,24.5h-260.32c-13.48,0-24.5-11.03-24.5-24.5v-106.87c0-13.48,11.02-24.5,24.5-24.5h260.32c13.47,0,24.5,11.03,24.5,24.5v106.87Z"/>
</svg>