<?xml version="1.0" encoding="UTF-8"?>
<svg id="Service_Info" data-name="Service Info" xmlns="http://www.w3.org/2000/svg" viewBox="0 0 2330.21 2447.83">
  <defs>
    <style>
      .cls-1 {
        fill: none;
      }
    </style>
  </defs>
  <path d="M2273.22,2166.84l-48.2,79.42c-21.2,34.93-52.38,60.21-82.73,87.5-33.87,30.45-72.52,51.03-113.86,69.72-64.14,29.01-123.04,43.68-193.93,43.63-41.63-.03-80.3-3.52-120.92-13.39-51.82-12.59-100.84-31.62-144.71-62.19l-29.54-20.58-1360.75.17c-99.6-12.2-175.89-95.2-168.81-196.12l-1.84-46.86.63-591.49.88-95.79-1.5-32.88.62-1212.82c.03-60.67,46.21-122.6,99.53-152.08C134.13,8.68,161.63.93,191.96,1.01l145.1.39,213.84-.09,903.71-.59,42.07,1.12c16.77.45,33.29,5.26,45.54,17.56l68.07,68.43,64.71,67.5,251.14,253.58,37.24,38.56c7.42,7.69,18.29,20.61,18.29,33.45l.13,858.15.92,134.95c.05,6.64-1.56,20.28,6.03,23.4,44.96,17.85,89.58,35.34,128.05,65.76,34.66,27.41,65.03,58.14,93.82,91.92,31.93,37.46,56.87,79.57,76.01,124.88,14.97,35.43,20.41,71.98,27.82,109.43,8.12,41.07,10.51,80.95,4.29,122.25l-18.11,85.21-27.42,69.97ZM1354.6,1852.47l8.16-32.17c12.05-35.84,24.53-70.35,45.39-101.92l29.86-45.2,40.12-50.09,35.15-32.05c27.37-24.96,55.63-46.48,89.34-62.93,44.07-21.52,88.93-41.56,137.76-47.64l52.97-6.59c39.2-4.88,77.48-4.39,115.54,5.59,3.06.8,8.05,1.26,10.16.24,2.12-1.03,4.33-6.05,5.04-8.6l.22-95.88-.3-659.5-.52-106.45-.73-93.47c-.08-9.92-7.65-12.26-15.9-12.19l-158.59,1.38c-55.63.48-110.26,3.4-164.82-.63-53.31-3.94-92.34-42.66-103.04-92.83-4.94-23.19.17-46.33-.02-70.39l-1.07-132.63-1.05-147.75c-3.74-6.5-12.59-3.5-18-3.47l-190.91.92-250.19-.35-247.81.29-319.84-.04-273.37.6c-28.37.06-59.03,19.18-77.15,39.72-19.09,21.64-35.37,50.85-35.4,80.55l-.43,447.93c-.01,14.81,1.78,26.38-.07,41.13l.14,1503.76c0,59.79,60.64,120.61,112.9,120.86l166.4.8,22.92-1.62,828.11.82,157.81.33,83.5-.4,28.08,1.62c1.77-6.96-.8-12.96-5.4-16.91-37.66-32.4-82.77-120.72-96.33-172.68l-9.64-36.98c-16.03-71.48-17.3-143.04,1-215.14ZM1880.39,442.17c-1.68-8.3-16.35-15.61-22.11-21.49l-99.81-101.87-167.2-167.76-45.3-45.58c-1.87-1.88-7.27-3.96-10.57-4.19l.77,28.41-.03,269.11c10.74,22.46,26.56,39.48,48.89,50.34l277.22.05c5.61,3.94,20.54,4.77,18.15-7.04ZM1744.18,2381.7c57.4,11.21,115.57,11.35,172.66.03,30.85-6.12,58.71-16.54,87.49-29.4,39.34-17.58,74.2-42.36,108.61-68.71,24.63-18.86,42.34-43.31,61.53-67.3,69.17-86.46,98.19-201.82,85.22-311.97-10.55-89.58-52.11-171.1-112.87-237.12-37.71-40.97-111.68-95.19-162.62-112.88-74.88-26-137.8-32.2-217.27-23.76-28.09,2.98-54.2,13.43-80.95,21.97l-50.62,24.15c-42.89,20.47-81.93,49.02-114.16,83.94l-44.78,56.34c-17.15,21.57-45.67,79.69-52.99,106.97l-16.23,60.5-8.04,79.52,6.85,76.35c6.9,39.6,20.81,77.32,37.24,113.46,13.17,28.95,30.5,52.2,50.82,75.84,66.51,77.4,148.73,132.26,250.09,152.07Z"/>
  <path d="M1264.19,1334.7l-487.56.09-451.12-.04c-15.13,0-25.69-15.87-26.34-27.53-.73-13,10.1-29.6,26.59-29.6l1327.29-.38c14.25,0,23.21-3.92,33.48,6.1,7.64,7.46,13.14,20.94,8.14,31.92-7.75,17.02-23.55,19.72-41.07,19.71l-389.41-.27Z"/>
  <path d="M1288.97,1601.47l-140.84.31-79.94-.96-39.33.36-693.02.29c-20.37,0-35.5-8.18-36.46-28.77-.83-17.85,16.24-33.48,36.14-29.43l319.79.11,343.13-.15,275.98-.05c17.03,0,29.58,4.36,35.24,21.25,4.62,13.77-3.55,31.09-20.71,37.04Z"/>
  <path d="M1153.09,1853.15l-344.68-.79-78.96-.09-210.28-.04-196.74-1.64c-6.08-.05-13.89-6.72-16.89-11.23-7.28-10.94-8.42-21.6-2.28-31.97,5.84-9.87,15.8-12.95,28.04-12.77l120.34,1.77,262.18.78,390.12.91,38.97-1.72c16.86-.74,29.17,7.33,33.59,23,3.37,11.96-6.37,33.83-23.39,33.79Z"/>
  <path d="M1011.94,2034.31c-1.58,8.77-9.82,21.93-19.1,24.94l-217.06,2.2-197.89-.98-258.18.03c-11.74-4.03-22.93-19.82-22.2-31.17,1.02-15.68,16.65-22.03,29.92-21.88l123.36,1.39,339.83.25,113.95.12,87.72,1.8c12.71.26,22.06,9.87,19.64,23.3Z"/>
  <path d="M1909.59,2205.96c-5.07,5.69-13.67,10.83-20.85,10.82l-118.66-.2c-9.54-.02-22.2-12.66-24.89-20.67-3.89-11.61,2.79-21.3,8.35-28.15,16.52-20.35,50.43,7.16,50.65-28.06l.52-83.13-.09-99.37c0-6.69,0-16.36-3.53-20.42-10.61-12.23-41.8,2.73-46.93-21.88-1.79-8.59,1.14-19.14,7.55-24.68,6.71-5.8,16.61-5.6,26.26-5.3l26.47.84c26.4.84,39.78-3.8,47.23,3.28,14.77,14.06-1.31,30.76-1.36,46.51l-.52,162.75-.35,52.76c-.05,7.75,14.64,9.74,20.97,8.44,14.46-2.97,25.48.06,32.76,10.98,6.52,9.8,6.45,24.25-3.56,35.48Z"/>
  <path d="M1815.7,1805.69c-22.98-5.24-40.49-26.41-43.36-47.19-4.38-31.77,14.08-55.98,43.63-61.26,30.8-5.5,58.26,9.61,66.51,41.38,4.5,17.34-2.92,37.28-15.64,49.99-12.21,12.21-31.04,21.67-51.14,17.08Z"/>
  <path d="M661.76,432.8c-66.69,0-120.76,54.07-120.76,120.76s54.07,120.76,120.76,120.76,120.76-54.07,120.76-120.76-54.07-120.76-120.76-120.76ZM662.06,624.92c-39.41,0-71.36-31.95-71.36-71.36s31.95-71.36,71.36-71.36,71.36,31.95,71.36,71.36-31.95,71.36-71.36,71.36Z"/>
  <path d="M661.76,268.07c-149.49,0-270.67,121.19-270.67,270.67s121.19,270.67,270.67,270.67,270.67-121.19,270.67-270.67-121.19-270.67-270.67-270.67ZM658.63,737.1c-111.87,0-202.55-90.69-202.55-202.55s90.69-202.55,202.55-202.55,202.55,90.69,202.55,202.55-90.69,202.55-202.55,202.55Z"/>
  <g>
    <path class="cls-1" d="M657.25,813.3c-147.76,0-271.42,67.2-303,157.25h605.99c-31.57-90.06-155.24-157.25-303-157.25Z"/>
    <path d="M657.25,813.3c147.76,0,271.42,67.2,303,157.25h110.2c-35.69-125.85-204.96-221.17-408.39-221.17s-372.7,95.32-408.4,221.17h100.59c31.57-90.06,155.24-157.25,303-157.25Z"/>
    <path d="M346.45,1015.86c0,13.76,2.11,27.19,6.13,40.18h609.36c4.01-12.99,6.13-26.42,6.13-40.18,0-15.57-2.7-30.74-7.81-45.3H354.26c-5.11,14.57-7.81,29.73-7.81,45.3Z"/>
    <path d="M346.45,1015.86c0-15.57,2.7-30.74,7.81-45.3h-100.59c-4.55,16.05-6.94,32.6-6.94,49.5,0,12.2,1.25,24.21,3.64,35.98h102.2c-4.01-12.99-6.13-26.42-6.13-40.18Z"/>
    <path d="M1070.45,970.55h-110.2c5.11,14.57,7.81,29.73,7.81,45.3,0,13.76-2.11,27.19-6.13,40.18h111.81c2.4-11.77,3.64-23.78,3.64-35.98,0-16.91-2.39-33.45-6.94-49.5Z"/>
  </g>
</svg>