<?xml version="1.0" encoding="UTF-8"?>
<svg id="Transition" xmlns="http://www.w3.org/2000/svg" viewBox="0 0 2330.21 2447.83">
  <path d="M1082.21,1417.97c-52.08,15.46-136.31,71.67-115.62,125.91,10.2,26.73,29.22,48.33,54.23,62.79,40.52,23.43,83.01,40.39,126.32,58.5,30.33,12.68,56.54,28.86,82.57,48.4,19.06,14.31,35.4,30.47,45.48,51.99,23.07,49.27,1.16,94.07-42.39,123.48-29.2,19.73-60.79,35.71-94.01,47.82l-54.72,19.96-70.25,22.45-62.12,21.63-72.94,26.35c-40.78,14.73-79.46,30.83-117.55,51.26l-45.84,28.82c-30.52,19.18-56.81,41.99-76.45,72.49-45.75,71.03-48.53,94.15-42.81,180.88l6.36,50.08c.63,5.45-6.5,15.81-11.2,19.28-11.52,8.5-28.61,3.78-34.31-9.78-21.23-50.5-20.36-142.21,1.23-192.42,12.66-29.46,25.96-58.12,45.87-82.64,26.55-32.69,56.38-60,91.65-82.38,35.26-22.37,70.4-41.44,108.32-58.79l63.11-25.25,70.49-24.22,50.65-16.94,71.25-23.54,60.77-20.9,55.48-23.17c20.83-8.7,39.11-23.95,52.21-42.27,13.8-19.3,9.16-46.17-7.2-62.16-21.45-20.97-47.17-33.28-74.22-45.46l-66.78-30.07c-32.02-14.42-63.05-28.18-92.66-47.36l-22.64-18.04-14.98-14.69c-24.87-24.38-37.09-57.72-32.66-94.19,5.13-42.16,30.55-79.34,66.8-102.17,66.41-41.82,129.52-57.75,205.73-72.35,35.4-6.78,69.57-11.1,105.24-13.74,23.14-1.71,44.06-7.54,60.92-22.43,46.56-41.12,3.67-95.58-34.23-136.95l-48.58-53.03c-10.48-11.44-14.36-28.58-7.83-43.41l27.45-62.31c3.87-8.78,13.39-10.89,21.76-8.42,22.79,6.71,43.94,7.32,67.89,7.81,6.05.12,19.48,3.74,22.95-1.15,6.59-9.28-3.81-15.18-7.82-21.44l-102.21-159.55-102.8-161.37-23.69-39.03c-1.02-1.68-4.98-4.2-6.67-4.2s-4.62,2.87-5.44,4.53l-8.22,16.66c-22.73,30.93-40.79,62.28-61.59,94.47l-99.16,153.41-77.47,121.08-48.78,73.13-52.15,79.34-85.01,131.32-30.58,46.53-72.26,114.82c-6.12,9.72-13.5,21.84-25.1,24.69-12.12,2.98-30.08-8.5-32.95-19.37,2.22-15.55,13.25-27.15,21.37-39.71l84.08-130.03,33.48-52.64c1.71-2.68,4.31-7.37,5.09-9.88.9-2.86-4.01-7.62-6.21-10.39l-41.01-51.66-28.43-37.21-60.66-79.2-33.28-43.61c-9.18-12.03-19.41-22.95-27.05-36.07-2.63-4.51-5.18-8.55-10.13-9.07-4.29-.46-5.84,7-8.24,10.57l-57.17,84.96-62.47,93.26-110.22,165.04-47.71,72.41-87.64,131.1-37.49,54.98-38.3,56.55c-8.95,13.21-24.22,14.42-37.07,6.13-6.29-4.06-12.81-13.35-7.86-21.36l25.98-42.07,121.13-183.07,25.73-37.75,45.78-67.16,114.32-172.01c17.3-26.02,33.42-50.29,51.1-75.76l37.02-53.34,47.97-69.15c6.45-9.3,17.36-13.05,27.53-12.87s19.21,5.43,25.91,14.5l48.94,66.19,51.18,63.8,61.92,73.9c14.84,17.71,30.25,37.06,42.26,56.32.92,1.48,5.37,4.5,6.64,3.5s3.48-3.58,4.59-5.27l40.1-61.69,27.65-42.43,39.42-59.94,65.02-99.74,86-134.99,39.46-62.49,47.28-72.29,38.79-60.6c3.94-6.15,12.05-13.37,12.14-21.34l1.79-153.4.31-67.82-1.03-66.12-.04-172.63c0-10.94,3.47-19.89-7.64-28.46-5.83-4.49-8.68-13.36-9.47-21.73-2.31-24.53,15.24-42.93,39.45-42.6,22.11.3,39.32,23.78,33.42,46.9-.62,2.44.63,8.86,2.19,10.6,1.87,2.09,6.88,2.78,11.66,2.78l367.46.05c19.28,0,43.52-11.12,53.35,12.7,2.42,5.87-.18,16.64-3.7,22.86l-15.72,27.85-50.15,84.67c-7.29,12.32-7.37,17.45.13,29.29l65.38,103.21c10.07,15.89-.62,29-18.26,40.25l-287.43-.61-130.56-1c-2.39,6.53-1.79,12.06-1.82,18.8l-.58,158.87c-.02,6.67,4.42,14.6,8.48,20.09,30.23,40.84,54.9,83.01,81.89,125.96l62.72,99.8,34.43,53.72,59.46,91.75,91.79,142.96,4.63,10.55c1.23,2.81,10.79,2.18,12.72-.28l26.36-43.31,48.61-75.68,51.27-79.34c7.11-11,22.33-16.77,33.69-9.49,7.92,5.08,15.66,13.6,20.81,22.06l95.6,156.8,34.98,53.54c1.88,2.87,5.18,6.47,7.68,7.16s8.3-3.24,9.21-6.01c3.4-10.36,11.27-19.73,18.18-29.05l24.08-32.49c8.24-11.12,18.48-23.27,33.36-24.32,9.03-.64,19.26,7.67,24.35,14.89l31.87,45.26,67.61,101.48,50.22,78.93,101.98,161.75,77.33,123.5c8.9,14.21,19.63,27.78,23.46,44.82,3.09,13.77-15.14,27.22-27.9,23.19-10.5-3.32-16.91-13.97-22.52-22.88l-48-76.27-136.72-215.34-86.65-134.81-47.99-73.82c-2.98-4.59-8.41-8.27-14.7-9.26-19.06,40.91-43.35,76.13-73.66,109.01l-15,23.81c-5.8,9.21-17.72,21.85-29.31,20.08-14.51-2.21-16.18-22.85-8.36-33.55,7.41-10.14,17.01-21.24,16.1-35.14-.91-13.75-10.06-25.41-17.24-36.78l-87.27-138.33-30.27-50.84c-.77-1.3-3.02-3.61-4.12-4.29-1.47-.9-6.08,1.5-6.87,3.16l-7.82,16.47-48.96,79.79-57.99,93.12.4,27.49c-4.67,6.88-15.52,15-24.53,16.18-7.7,1.01-18.02-7.83-22.42-14.71l-87.06-136.1c-4.19-6.55-11.64-7.98-17.9-3.33-18.79,13.98-43.65,13.84-65.99,6.18-11.17-3.83-21.37-2.57-29.28,7.57-5.34,6.85-11.22,23.9-3.59,31.74l36.71,37.68c24.27,24.91,41.83,52.09,57.7,82.71,21.25,40.97,16.63,86.78-15.63,121.68-19.24,20.82-44.78,35.45-72.23,44.68l-22.37,7.52-39.48,16.38c-31.54,13.08-61.25,27.96-88.25,49.42-11.66,9.27-20.91,21.54-29.17,33.78-6.86,10.15-5.62,22.75,2.34,31.81,14.18,16.16,31.13,29.29,51.36,36.61l101.09,36.58c64.89,23.48,149.24,56.5,201.17,99.01,28.13,23.03,52.03,50.61,63.77,85.44,10.99,32.62,10.12,68.75.21,101.59-5.13,16.99-15.46,32.23-25.78,46.44-21.81,30.06-51.14,52.26-82.99,70.65l-58.57,33.8-59.76,30.53c-57.15,29.2-161.53,83.41-137.71,154.74,13.52,40.48,71.75,77.87,112.21,94.82l201.58,84.43c12.31,5.16,14.68,19.29,9.61,30.46-2.82,6.2-13.78,16.99-21.56,15.69-12.01-2-23.19-6.36-34.17-10.78l-83.7-33.68c-40.02-16.1-78.73-31.68-116.35-52.78-52.97-29.7-102.87-60.65-119.99-121.77-9.8-34.99,6.83-76.63,30.09-104.59,15.53-18.68,32.6-37.29,53.52-49.97l68.87-41.76,79.46-40.44c37.85-19.26,72.88-40.64,104.02-69.63,19.8-18.44,35.49-39.9,40.93-66.91,6.7-33.3-2.24-66.85-23.96-92.63-35.35-41.95-112.85-78.68-166.07-97.88l-76.37-27.55-77.25-28.7c-33.14-12.31-60.78-33.42-79.21-63.2-11.67-18.84-12.33-38.52-3.56-58.64,25.61-58.72,73.33-69.55,71.65-80.52-.34-2.2-7.03-4.56-9.43-3.84l-80.35,23.85ZM1499.34,230.45l27.14-46.24,15.06-25.35,19.98-32.41c1.31-2.12,2.87-6.04,2.16-7.96s-5.92-3.8-7.97-3.77l-34.36.58-276.81.2-53.17.44c-4.38,3.4-1.46,13.02-1.48,18.9l-.7,204.86c5.88,5.91,12.79,3.41,19.45,3.41l67.99-.05,287.47-1.19c1.19-5.92-.71-10.89-3.96-15.39l-19.07-26.3c-15.95-22-29.01-43.27-41.74-69.74Z"/>
  <path d="M2003.85,2236.18l.33-135.03c0-3.84-.28-9.77-1.93-12.01-1.93-2.61-8.86-4.04-13.02-3.97l-142.46,2.26c-14.18.22-32.76-10.25-30.24-26.74,1.9-12.46,15.98-23.78,23.69-33.61l44.79-57.08,35.11-46.27,1.03-8.58c.28-2.3-6.07-3.57-8.39-3.38l-36.9,3.05c-14.73,1.22-33.63-8.35-32.52-25.9.62-9.73,10.06-20.12,16.88-27.44l73.79-104.51.75-8.98c.84-9.98-43.57,10.82-56.22-16.36-3.9-8.39-1.75-16.52,3.85-24.06,24.33-32.76,48.99-64.71,68.48-100.43l25.68-47.05,23.64-48.43c4.42-9.05,10.58-19.69,20.85-22.29,10.34-2.62,20.99,5.86,25.19,15.3,27.75,62.44,74.05,147.16,116.18,199.28,8.13,10.05,9.36,21.59,3.52,30.96-14.21,22.78-33.17,4.89-52.71,11.59-.06,8.61,4.07,14.78,8.25,21.47,22.7,36.34,46.08,71.36,75.93,102.08,10.38,10.69,9.7,24.29-.78,34.74-6.97,6.96-14.17,8.74-24.99,7.86l-38.03-3.11c-2.76-.23-6.06,7.43-4.54,9.5l7.3,10,32.79,46.28c16.95,23.93,35,45.36,56.1,65.67,8.98,8.64,13.2,19.77,8.29,29.91-5.81,12.02-14.86,14.8-27.75,14.77l-148.97-.31c-4.21,0-8.86,4.89-8.86,9.05l-.09,155.52c0,11.1-13.85,18.36-22.35,21.37-17.42-2.77-27.97-17.81-21.63-35.11ZM2019.34,1946.76c7.54-1.66,15.62-.22,20.65,3.39,4.08,2.92,6.67,11.84,6.66,17.5l-.08,63.3c0,6.56,6.19,10.99,12.52,10.87l29.37-.57,53.57-.45c6.71-.06,14.3,1.99,18.91-2.13-.92-10.62-11.01-14.27-15.88-21.27l-69.45-99.86c-7.79-11.21-12.24-23.63-11.85-37.16.33-11.28,8.59-24.17,21.24-21.99l39.27,6.77c2.1.36,7.12-2.89,6.66-4.8-.37-1.54-2.09-5.22-3.13-6.54l-20.88-26.49c-22.78-28.9-40.84-59.6-55.3-93.67-3.02-7.11-1.93-18.34,1.54-24.79,2.8-5.22,12.06-13.35,19.03-11.55l21.03,5.43c2.41.62,8-.71,8.48-2.86.38-1.73-.1-7.44-1.35-8.83l-15.69-17.38c-19.31-30.77-35.64-61.57-50.25-94.63-1.55-3.5-3.36-9.46-6.14-10.51s-8.67,3.33-9.63,6.27c-12.12,37.2-41.51,81.58-65.92,111.8-2.18,2.7-2.87,10.78-.82,12.8,7.07,6.97,29.33-6.89,40.04,3.89,9.39,9.45,8.49,27.4,1.65,38.61l-33.42,54.8-22.48,34.07-19.82,25.24c-1.33,1.7-3.71,6.91-2.24,8.39,1.17,1.18,6.72,2.89,8.56,2.57l40.38-7.14c12.84-2.27,26.36,4.2,25.94,18.56-.38,13.03-7.13,25.05-14.15,36.1-22.59,35.57-44.55,69.81-71.94,101.95-4.96,5.82-15.75,12.91-14.42,20.91,1.57,9.47,13.05,3.05,18.18,3.03l81.08-.25c4.19-.01,10.55-1.59,12.58-4.04,1.75-2.1,3.23-8.33,3.1-11.31l-2.55-59.04c-.4-9.27,7.72-16.98,16.95-19.02Z"/>
  <path d="M334.61,2283.02c.51,11.6-4.8,20.59-12.44,24.17-9.28,4.35-18.83,2.65-26.73-2.58-9.71-6.43-6.82-16.86-6.77-27.58l.61-135.2c.02-3.55-3.24-9.82-5.85-11.44-3.09-1.92-10.47-.15-14.78-.11l-114.69,1c-20.75.18-44.58,7.68-56.49-11.46-3.08-4.95-3.69-15.65.77-20.26,36.72-37.89,68.3-77.59,97.14-121.69,3.3-5.04,9.01-11.07,9.67-16.57.7-5.81-7.11-6.4-11.22-5.39-14.86,3.66-28.96,3.49-44.5,3.75-9.03.15-16.31-2.84-21.13-10.16-11.1-16.86,11.29-36.93,26.2-53.54,26.64-29.68,47.89-62.21,68.01-96.75.91-1.56,1.65-6.49.46-7.75-6.69-7.17-49.83,13.83-60.42-14.59-2.18-5.86-.85-15.15,2.96-20.58l12.22-17.46c16.56-18.32,28.68-37.22,41.44-58.34,26.07-43.17,50.17-85.68,70.95-131.57,3.88-8.57,13.06-14.7,20.76-14.79,9.39-.12,17.86,6.61,21.94,16.03,14.59,33.66,30.52,64.9,50.27,95.95l57.14,89.85,10.7,11.9c6.29,7,11.05,14.86,9.62,23.88-1.17,7.36-8.52,20.39-17.76,20.03l-32.89-1.27c-1.6-.06-6.36.36-6.45,1.71l-.51,8.08,47.94,71.68,38.83,47.3c4.79,5.83,7.17,17.03,5.38,24.06-1.57,6.14-9.94,15.73-17.69,15.74l-58.75.11c-.2,7.94,2.35,11.98,6.4,17.88,28.25,41.14,57.32,79.64,91.36,116.12,3.39,3.63,6.81,11.78,6.54,15.83s-4.48,10.79-7.56,14.41c-6.76,7.94-13.16,7.54-22.77,7.51l-148.87-.39c-4.56-.01-11.05,4.66-11.05,9.12l.09,99.29,1.93,44.05ZM310.88,1988.08c11.68-.22,21.64,15.22,21.62,24.55l-.17,66.4c0,3.03,5.39,8.91,8.61,8.86l66.01-1.08,29.33.53c3.52.06,10.2-.49,10.94-3.19.62-2.25-.36-8.64-2.1-10.45l-15.29-15.92c-27.59-34.91-51.31-70.82-73.83-109.04-5.68-9.64-4.88-21.2,1.73-28.69,6.25-7.09,16.17-9.28,26.47-8.6l40.77,2.69c.08-9.66-3.85-12.6-8.57-19.23l-36.47-51.28-33.86-56.71c-5.56-9.32-5.22-23.9-.58-33.88,2.32-4.99,13.06-7.67,17.96-6.75l26.05,4.9c4.62-10.16-3.28-12.69-7.41-18.51-23.7-33.41-44.8-68.27-60.44-106.34-1.71-4.17-2.8-9.75-4.96-11.95-1.85-1.89-10.2-.54-10.95,2.03l-5.9,20.37-46.24,76.38-21.71,25c-2.22,20.36,21.73,3.11,40.32,9.86,11.71,4.25,15.05,20.33,9.13,31.59-20.7,39.32-43.34,76.76-68.64,113.8-3.4,4.98-12.5,8.99-13.02,16.03-1.11,14.9,34.92-5.3,66.59,9.82,6.27,3,7.76,16.47,4,22.61l-38.65,62.96-13.82,19.74c-12.41,17.72-22.1,36.06-40.71,47.99-3.05,1.95-6.05,8.51-4.92,11.54.96,2.57,7.76,3.91,10.97,3.49,13.93-1.82,25.27-1.34,38.57-1.13l60.32.93c5.62-3.35,5.74-12.59,5.68-18l-.59-49.87c-.15-12.53,7.92-31.15,23.76-31.45Z"/>
  <path d="M1665.74,1400.22c-7.17,1.62-17.01-8.31-20.17-14.31l-21.83-41.4c-6.88-13.06-12.62-25.23-21.46-37.41-6.55-9.03-12.12-20.55-6.79-29.91l10.05-1.32c2.4-.31,2.23-6.61,2.45-11.64,16.45-2.45,27.87,24.88,40.76,41.73l33.3,43.51,12.58,22.14c-6.27,12.69-13.17,25.07-28.89,28.61ZM1630.88,1309.13c-2.52.86-6.02,6.7-4.53,8.6,1.66,2.11,6.37,4.9,8.46,3.69s4.86-6.21,3.71-8.33c-.96-1.76-5.72-4.62-7.65-3.96Z"/>
</svg>